<?xml version="1.0" encoding="utf-8"?>
<!-- Generator: Adobe Illustrator 27.5.0, SVG Export Plug-In . SVG Version: 6.00 Build 0)  -->
<svg version="1.1" id="Ñëîé_1" xmlns="http://www.w3.org/2000/svg" xmlns:xlink="http://www.w3.org/1999/xlink" x="0px" y="0px"
	 viewBox="0 0 3000 3000" style="enable-background:new 0 0 3000 3000;" xml:space="preserve">
<g>
	<g>
		<path style="fill:#94A8BB;" d="M1370.841,1680.152v-188.891c0,0,198.833-83.51,210.763-111.347c11.93-27.836,0-509.011,0-509.011
			h61.638c0,0,15.907,463.279,0,518.953c-15.906,55.673-200.821,127.252-200.821,127.252v170.996L1370.841,1680.152z"/>
		<path style="fill:#72839D;" d="M1797.986,672.298c0,0-103.541,116.75-109.566,140.075c-6.025,23.325-1.373,210.245-16.047,218.896
			c-14.675,8.65-102.808,15.12-110.423-1.154c-7.615-16.273-11.173-142.271-18.077-155.226
			c-6.905-12.954-217.177,19.19-224.229,5.55c-7.051-13.64-11.7-93.382-11.7-93.382l436.198-192.576L1797.986,672.298z"/>
		<path style="opacity:0.3;" d="M1398.723,846.049l-88.587-49.002c-1.357-6.069-2.193-9.99-2.193-9.99l436.199-192.576l7.364,10.643
			c1.864,29.286,5.469,74.235,5.469,74.235s-90.875,102.184-96.22,120.979c-5.347,18.793-2.35,115.015-11.333,127.844
			c-8.981,12.829-58.161,19.243-61.368,0c-3.207-19.245-4.276-75.529-16.037-82.133
			C1560.257,839.445,1398.723,846.049,1398.723,846.049z"/>
		<g>
			
				<rect x="131.047" y="818.013" transform="matrix(0.9104 -0.4137 0.4137 0.9104 -207.7216 694.6824)" style="fill:#4E4978;" width="2737.905" height="17.819"/>
		</g>
		
			<ellipse transform="matrix(0.9908 -0.1355 0.1355 0.9908 -68.0135 246.1378)" style="fill:#94A8BB;" cx="1773.828" cy="622.615" rx="70.701" ry="70.702"/>
		
			<ellipse transform="matrix(0.9769 -0.2138 0.2138 0.9769 -110.8489 362.2387)" style="fill:#94A8BB;" cx="1619.228" cy="693.581" rx="70.701" ry="70.702"/>
		
			<ellipse transform="matrix(0.9824 -0.1868 0.1868 0.9824 -117.0247 287.0097)" style="fill:#94A8BB;" cx="1464.627" cy="764.547" rx="70.701" ry="70.702"/>
		
			<ellipse transform="matrix(0.9717 -0.2361 0.2361 0.9717 -160.2442 332.9648)" style="fill:#94A8BB;" cx="1310.027" cy="835.513" rx="70.701" ry="70.702"/>
		<path style="opacity:0.5;" d="M1748.859,661.182c-10.302-6.669-17.388-16.951-19.957-28.951
			c-5.303-24.772,10.536-49.24,35.309-54.542c11.998-2.57,24.279-0.31,34.584,6.359c10.301,6.67,17.388,16.951,19.957,28.951
			c5.303,24.773-10.536,49.24-35.309,54.543c-3.23,0.692-6.479,1.033-9.708,1.033
			C1764.974,668.574,1756.389,666.056,1748.859,661.182z M1767.939,595.113c-15.163,3.246-24.86,18.224-21.615,33.389
			c1.573,7.346,5.912,13.64,12.218,17.722c6.308,4.083,13.83,5.465,21.173,3.893c15.163-3.246,24.86-18.224,21.615-33.389
			c-1.573-7.346-5.912-13.64-12.218-17.722c-4.609-2.984-9.866-4.525-15.228-4.525
			C1771.909,594.48,1769.917,594.69,1767.939,595.113z M1574.302,703.197c-5.303-24.773,10.536-49.24,35.309-54.542
			c11.996-2.569,24.279-0.31,34.585,6.358c10.302,6.669,17.388,16.951,19.957,28.951c5.303,24.773-10.536,49.24-35.309,54.543
			c-3.228,0.691-6.449,1.023-9.625,1.023C1598.022,739.529,1578.914,724.741,1574.302,703.197z M1613.339,666.078L1613.339,666.078
			c-15.163,3.246-24.86,18.224-21.615,33.389c1.573,7.346,5.912,13.64,12.218,17.722c6.306,4.083,13.827,5.465,21.173,3.893
			c15.163-3.246,24.859-18.225,21.614-33.39c-1.573-7.346-5.912-13.64-12.218-17.722c-4.609-2.984-9.864-4.525-15.228-4.525
			C1617.309,665.446,1615.316,665.656,1613.339,666.078z M1285.059,874.08c-10.301-6.67-17.388-16.951-19.957-28.951
			c-5.303-24.773,10.536-49.24,35.309-54.543c11.998-2.569,24.281-0.311,34.585,6.359c10.301,6.669,17.388,16.951,19.957,28.951
			c5.303,24.772-10.537,49.24-35.309,54.542c-3.23,0.691-6.48,1.033-9.708,1.033C1301.174,881.472,1292.589,878.953,1285.059,874.08
			z M1304.139,808.01c-15.163,3.246-24.859,18.224-21.614,33.389c1.573,7.345,5.912,13.64,12.218,17.722
			c6.308,4.083,13.827,5.464,21.173,3.893c15.163-3.246,24.86-18.224,21.614-33.389c-1.573-7.346-5.912-13.639-12.217-17.722
			c-4.609-2.984-9.867-4.525-15.228-4.525C1308.109,807.378,1306.116,807.587,1304.139,808.01z M1439.659,803.114
			c-10.302-6.669-17.388-16.951-19.957-28.951c-5.303-24.773,10.537-49.24,35.309-54.543c11.998-2.57,24.281-0.311,34.585,6.359
			c10.301,6.669,17.388,16.951,19.957,28.951c5.303,24.773-10.537,49.24-35.309,54.542c-3.23,0.692-6.48,1.033-9.708,1.033
			C1455.775,810.505,1447.189,807.987,1439.659,803.114z M1458.739,737.044c-15.163,3.246-24.859,18.224-21.614,33.389
			c1.573,7.346,5.912,13.64,12.217,17.722c6.306,4.083,13.825,5.464,21.173,3.893c15.163-3.246,24.859-18.224,21.614-33.389
			c-1.573-7.346-5.912-13.64-12.218-17.723c-4.609-2.984-9.866-4.526-15.228-4.526
			C1462.709,736.412,1460.717,736.621,1458.739,737.044z"/>
		<path style="fill:#4E4978;" d="M1764.383,607.248l-149.792,67.162c-9.754,4.374-14.107,15.832-9.716,25.578l0,0
			c2.806,6.23,8.694,10.516,15.486,11.272l51.609,5.746c31.644,3.523,62.857-9.588,82.492-34.652l34.364-43.863
			c4.612-5.887,5.64-13.823,2.679-20.69l0,0C1786.992,607.334,1774.785,602.584,1764.383,607.248z"/>
		<path style="fill:#4E4978;" d="M1455.183,749.18l-149.792,67.163c-9.754,4.373-14.107,15.832-9.716,25.578l0,0
			c2.807,6.231,8.694,10.516,15.486,11.273l51.609,5.746c31.644,3.523,62.857-9.588,82.492-34.651l34.364-43.863
			c4.612-5.887,5.64-13.823,2.679-20.69l0,0C1477.791,749.266,1465.585,744.516,1455.183,749.18z"/>
		<path style="opacity:0.5;" d="M1370.841,1610.379c6.292,0.283,12.584,0.565,18.877,0.848c-0.013-0.361-0.058-0.703-0.029-1.092
			c1.648-22.922,3.295-45.843,4.943-68.765l1.177-16.372c0.366-5.088,0.254-10.599,1.99-15.45
			c3.65-10.197,15.792-13.784,24.651-18.132c39.999-19.626,80.467-38.521,120.015-59.042c14.978-7.772,29.925-16.387,41.994-28.342
			c12.887-12.764,20.084-28.551,21.918-46.6c2.217-21.817,0.795-44.164,0.854-66.059c0.061-22.822,0.281-45.643,0.661-68.46
			c0.841-50.439,2.485-100.863,4.871-151.252c-9.101,0.063-18.206-0.442-27.287-1.418c-0.089-5.973-0.18-11.891-0.272-17.762
			c20.923,2.584,42.156,1.923,62.901-1.79c0.125,5.943,0.247,11.95,0.367,18.004c-5.927,0.966-11.878,1.699-17.844,2.203
			c-2.127,44.76-3.683,89.548-4.591,134.35c-0.921,45.465-0.161,90.947-0.989,136.403c-0.36,19.746-3.006,39.812-13.544,56.936
			c-9.096,14.787-22.407,26.3-36.788,35.762c-15.677,10.317-32.79,18.243-49.6,26.491c-20.595,10.105-41.191,20.211-61.785,30.317
			c-11.626,5.705-23.252,11.411-34.878,17.114c-2.99,1.468-5.984,2.926-8.969,4.403c-1.601,0.792-4.143,1.586-5.028,3.174
			c-0.943,1.692-0.533,5.038-0.671,6.969c-0.236,3.273-0.471,6.549-0.706,9.823c-1.858,25.834-3.715,51.666-5.572,77.498
			c-0.048,0.668-0.165,1.288-0.323,1.877c11.745,0.528,23.49,1.055,35.236,1.583v17.819c-23.86-1.073-47.72-2.145-71.58-3.217
			V1610.379z"/>
		<path style="opacity:0.3;" d="M1557.506,1006.415c-0.631-5.418-1.237-11.474-1.825-17.93c41.724,4.47,83.976,3.389,125.436-3.104
			c-0.457,6.597-0.977,12.727-1.577,18.221C1639.121,1009.514,1598.142,1010.424,1557.506,1006.415z"/>
		<path style="opacity:0.3;" d="M1764.421,622.623c0.423-1.509,1.186-2.819,2.292-3.93c0.601-0.466,1.202-0.929,1.803-1.394
			c1.39-0.805,2.888-1.212,4.496-1.216h0.536c1.227-0.046,2.371,0.208,3.432,0.768c1.105,0.359,2.061,0.973,2.868,1.843
			c0.869,0.807,1.482,1.762,1.841,2.867c0.559,1.062,0.813,2.206,0.768,3.433c-0.107,0.789-0.212,1.579-0.318,2.369
			c-0.424,1.51-1.188,2.819-2.292,3.93c-0.601,0.466-1.203,0.929-1.803,1.394c-1.39,0.805-2.889,1.212-4.497,1.216h-0.536
			c-1.225,0.045-2.371-0.209-3.432-0.768c-1.104-0.359-2.06-0.972-2.867-1.842c-0.869-0.807-1.483-1.762-1.842-2.867
			c-0.558-1.062-0.813-2.206-0.768-3.432C1764.209,624.202,1764.316,623.412,1764.421,622.623z"/>
		<path style="opacity:0.3;" d="M1621.731,681.299c11.466,0,11.485,17.819,0,17.819
			C1610.266,699.118,1610.246,681.299,1621.731,681.299z"/>
		<path style="opacity:0.3;" d="M1453.756,762.684c0.359-1.105,0.972-2.062,1.841-2.869c0.807-0.868,1.763-1.481,2.868-1.843
			c1.062-0.557,2.205-0.813,3.432-0.766c0.789,0.105,1.579,0.211,2.369,0.318c1.51,0.424,2.819,1.188,3.931,2.291
			c0.465,0.602,0.929,1.203,1.394,1.803c0.805,1.39,1.21,2.888,1.216,4.498v0.535c0.046,1.225-0.21,2.369-0.768,3.433
			c-0.359,1.102-0.973,2.06-1.842,2.867c-0.807,0.868-1.762,1.483-2.867,1.842c-1.062,0.557-2.206,0.813-3.432,0.768
			c-0.789-0.107-1.579-0.213-2.368-0.319c-1.51-0.424-2.819-1.188-3.932-2.291c-0.465-0.602-0.929-1.203-1.393-1.803
			c-0.806-1.39-1.212-2.888-1.216-4.496v-0.535C1452.941,764.89,1453.197,763.746,1453.756,762.684z"/>
		<path style="opacity:0.3;" d="M1305.681,830.037c0.36-1.103,0.973-2.06,1.843-2.867c0.807-0.868,1.763-1.483,2.867-1.842
			c1.062-0.557,2.206-0.813,3.433-0.766c0.79,0.105,1.579,0.211,2.368,0.318c1.51,0.422,2.82,1.188,3.932,2.291
			c0.463,0.603,0.929,1.203,1.392,1.803c0.807,1.39,1.212,2.888,1.217,4.498v0.533c0.046,1.227-0.21,2.371-0.768,3.432
			c-0.359,1.105-0.973,2.06-1.841,2.869c-0.807,0.868-1.764,1.481-2.868,1.84c-1.062,0.559-2.206,0.814-3.432,0.768
			c-0.789-0.106-1.579-0.211-2.368-0.318c-1.51-0.424-2.82-1.188-3.932-2.291c-0.464-0.602-0.929-1.203-1.393-1.805
			c-0.806-1.388-1.211-2.889-1.216-4.496v-0.533C1304.868,832.245,1305.124,831.101,1305.681,830.037z"/>
	</g>
	<path style="fill:#4E4978;" d="M1498.35,1673.535c0-2.406,16.037-67.355,29.668-71.364s83.392-7.217,91.41,0
		s24.055,76.977,24.055,76.977L1498.35,1673.535z"/>
	<path style="fill:#4E4978;" d="M1415.565,2231.553l-489.403-23.418c0,0-21.222-92.784-19.194-97.595
		c2.028-4.811,80.766-317.202,90.23-312.184c9.465,5.017,848.35-0.06,848.35-0.06l84.199,420.026l-77.334,6.633L1415.565,2231.553z"
		/>
	<path style="opacity:0.3;fill:#FFFFFF;" d="M988.258,2211.106c58.709-119.485,132.277-267.714,203.35-410.546
		c89.783,0.063,199.215-0.209,302.688-0.588c-69.844,144.751-147.549,304.82-207.367,425.424L988.258,2211.106z M1472.102,2230.7
		l94.901-1.433c51.697-105.605,135.161-276.073,210.884-430.588c-35.862,0.194-83.772,0.441-138.306,0.694
		C1578.211,1957.041,1512.901,2125.427,1472.102,2230.7z"/>
	<g>
		<rect x="1393.964" y="1798.355" style="fill:#72839D;" width="17.819" height="398.783"/>
	</g>
	<path style="fill:#477C6E;" d="M920.221,2224.954c0,0,564.497,14.986,990.009,0c-10.691,203.115-40.627,449.013-40.627,449.013
		H978.717l-20.007-23.583L920.221,2224.954z"/>
	<path style="opacity:0.3;" d="M990.705,2308.426c-33.609-0.866-58.264-1.497-63.06-1.42l-1.599-17.675
		c5.021-0.268,18.879,0.091,65.119,1.283c175.002,4.515,633.936,16.351,915.093-0.265c-0.405,5.966-0.822,11.942-1.25,17.921
		C1622.87,2324.731,1165.438,2312.935,990.705,2308.426z M1338.49,2666.902c-5.886-35.801-20.142-104.337-43.766-111.086
		c-15.994-4.57-104.08-3.413-130.697-2.948c-51.634,0.898-114.66,2.858-121.697,7.08c-3.313,1.988-9.905,5.995-37.894,114.019
		h18.476c12.132-46.063,24.339-88.198,29.376-98.538c26.047-3.946,217.729-8.141,237.533-2.482
		c8.962,2.997,23.65,49.893,31.754,101.02h82.975L1338.49,2666.902z"/>
	<path style="fill:#72839D;" d="M990.783,2699.092c0,0,27.263,35.281,48.111,41.696s687.981,11.226,715.244,0
		s60.94-49.714,60.94-49.714S979.557,2700.695,990.783,2699.092z"/>
	<path style="fill:#4E4978;" d="M889.453,2101.677c0,0-45.731,25.848-49.708,53.685c-3.977,27.836-15.907,131.229,0,149.124
		c15.906,17.895,61.638,43.743,61.638,43.743L889.453,2101.677z"/>
	<path style="fill:#4E4978;" d="M1941.677,2101.677c0,0,45.731,25.848,49.708,53.685c3.977,27.836,15.906,131.229,0,149.124
		c-15.907,17.895-61.638,43.743-61.638,43.743L1941.677,2101.677z"/>
	<path style="fill:#72839D;" d="M1697.114,1663.237c-21.882-13.781-183.046-14.924-281.549-14.295
		c-98.501-0.629-259.667,0.514-281.547,14.295c-31.814,20.04-39.767,130.25-39.767,130.25h244.802h153.026h244.801
		C1736.88,1793.486,1728.926,1683.277,1697.114,1663.237z"/>
	<path style="fill:#94A8BB;" d="M926.636,2179.457h973.972v75.414c0,0-800.774,14.968-973.972,0
		C925.567,2196.069,926.636,2179.457,926.636,2179.457z"/>
	<path style="opacity:0.5;" d="M1900.608,2254.87c0,0-11.614,0.218-32.3,0.572c1.804-30.87,2.991-57.287,3.218-75.984h29.082
		V2254.87z M962.924,2257.184c-1.863-31.62-3.089-58.677-3.32-77.727h-32.968c0,0-1.069,16.612,0,75.412
		C936.699,2255.74,948.904,2256.508,962.924,2257.184z"/>
	<rect x="995.594" y="1701.739" style="fill:#4E4978;" width="831.102" height="19.409"/>
	<path style="fill:#94A8BB;" d="M1923.782,2622.618c0,0,41.755-417.548,35.789-471.233c-5.964-53.685-89.474-495.094-89.474-495.094
		c-2.518-13.329-67.603-5.964-71.58,0c-1.244,1.866,6.465,46.95,17.892,109.359c-55.725,0-206.891,0-324.331,0
		c0,0-67.59,0-153.027,0c-117.44,0-268.606,0-324.33,0c11.426-62.409,19.135-107.493,17.891-109.359
		c-3.976-5.964-69.062-13.329-71.579,0c0,0-83.51,441.409-89.475,495.094c-5.965,53.684,35.79,471.233,35.79,471.233
		s-19.884,13.919-19.884,25.849c0,11.928,3.977,61.637,15.907,61.637c7.908,0,263.902,0,435.68,0c87.403,0,153.027,0,153.027,0
		c171.778,0,427.774,0,435.68,0c11.93,0,15.907-49.708,15.907-61.637C1943.666,2636.537,1923.782,2622.618,1923.782,2622.618z
		 M1856.179,2638.525l-440.614,11.859l-440.614-11.859c0,0-41.754-441.407-33.8-485.151c4.771-26.241,38.161-197.729,63.26-332.05
		h334.641h153.027h334.641c25.099,134.321,58.49,305.809,63.261,332.05C1897.933,2197.118,1856.179,2638.525,1856.179,2638.525z"/>
	<path style="opacity:0.5;" d="M871.129,2157.733c0.096-2.473,0.237-4.609,0.429-6.347c0.312-2.815,0.85-6.752,1.565-11.576
		c23.335-1.988,46.614,0.535,69.683,4.675c-0.71,3.769-1.281,6.828-1.656,8.89c-0.373,2.049-0.636,4.972-0.8,8.683
		C917.506,2157.815,894.201,2155.077,871.129,2157.733z M974.951,2638.525c0,0-0.641-6.78-1.747-18.71
		c-10.554-3.576-21.092-7.246-31.752-10.478c-11.753-3.563-23.675-5.64-35.834-4.233c1.096,11.174,1.73,17.514,1.73,17.514
		s-0.083,0.058-0.148,0.104c10.821-1.718,21.867,1.364,32.104,4.6c11.509,3.639,22.918,7.611,34.365,11.439
		c1.637,0.546,3.407,0.422,5.048-0.135L974.951,2638.525z M1015.885,1765.651c-6.041,18.019-9.822,36.706-11.451,55.673h17.826
		c1.692-19.024,5.914-37.721,12.398-55.673C1027.612,1765.651,1021.321,1765.651,1015.885,1765.651z"/>
	<path style="opacity:0.5;" d="M1890.779,2162.057c-0.163-3.711-0.426-6.634-0.799-8.683c-0.375-2.062-0.946-5.121-1.656-8.89
		c23.068-4.139,46.348-6.663,69.683-4.675c0.715,4.824,1.253,8.761,1.565,11.576c0.192,1.738,0.334,3.874,0.429,6.347
		C1936.929,2155.077,1913.624,2157.815,1890.779,2162.057z M1852.413,2638.627c1.64,0.557,3.411,0.681,5.048,0.135
		c11.446-3.828,22.856-7.8,34.365-11.439c10.236-3.236,21.283-6.319,32.104-4.6c-0.065-0.046-0.148-0.104-0.148-0.104
		s0.634-6.341,1.73-17.514c-12.159-1.407-24.081,0.67-35.834,4.233c-10.659,3.232-21.198,6.902-31.752,10.478
		c-1.106,11.93-1.746,18.71-1.746,18.71L1852.413,2638.627z M1796.472,1765.651c6.484,17.952,10.706,36.649,12.398,55.673h17.826
		c-1.629-18.967-5.409-37.654-11.451-55.673C1809.809,1765.651,1803.518,1765.651,1796.472,1765.651z"/>
	<path style="opacity:0.3;" d="M1815.775,2555.306c-0.456,13.895-0.911,27.79-1.367,41.684c-0.163,4.996-3.951,8.688-8.909,8.909
		c-4.702,0.211-9.062-4.246-8.909-8.909c0.456-13.895,0.911-27.789,1.367-41.684c0.163-4.996,3.951-8.688,8.909-8.909
		C1811.567,2546.186,1815.927,2550.643,1815.775,2555.306z M1761.265,2546.397c-4.958,0.222-8.746,3.913-8.909,8.909
		c-0.456,13.895-0.911,27.79-1.367,41.684c-0.152,4.664,4.208,9.12,8.909,8.909c4.958-0.222,8.746-3.913,8.909-8.909
		c0.455-13.895,0.911-27.789,1.367-41.684C1770.327,2550.643,1765.967,2546.186,1761.265,2546.397z M1715.665,2546.397
		c-4.958,0.222-8.746,3.913-8.909,8.909c-0.456,13.895-0.911,27.79-1.367,41.684c-0.152,4.664,4.208,9.12,8.909,8.909
		c4.958-0.222,8.746-3.913,8.909-8.909c0.456-13.895,0.911-27.789,1.367-41.684
		C1724.726,2550.643,1720.366,2546.186,1715.665,2546.397z M1670.064,2546.397c-4.958,0.222-8.746,3.913-8.909,8.909
		c-0.456,13.895-0.911,27.79-1.367,41.684c-0.152,4.664,4.208,9.12,8.909,8.909c4.959-0.222,8.746-3.913,8.909-8.909
		c0.456-13.895,0.911-27.789,1.367-41.684C1679.126,2550.643,1674.766,2546.186,1670.064,2546.397z"/>
</g>
</svg>
