<?xml version="1.0" encoding="UTF-8" standalone="no"?>
<svg
   version="1.1"
   id="Ñëîé_1"
   x="0px"
   y="0px"
   viewBox="0 0 3000 3000"
   style="enable-background:new 0 0 3000 3000;"
   xml:space="preserve"
   sodipodi:docname="gondola2.svg"
   inkscape:export-filename="gondola3.svg"
   inkscape:export-xdpi="96"
   inkscape:export-ydpi="96"
   inkscape:version="1.4.3 (0d15f75042, 2025-12-25)"
   xmlns:inkscape="http://www.inkscape.org/namespaces/inkscape"
   xmlns:sodipodi="http://sodipodi.sourceforge.net/DTD/sodipodi-0.dtd"
   xmlns="http://www.w3.org/2000/svg"
   xmlns:svg="http://www.w3.org/2000/svg"><defs
   id="defs29" /><sodipodi:namedview
   id="namedview29"
   pagecolor="#ffffff"
   bordercolor="#000000"
   borderopacity="0.25"
   inkscape:showpageshadow="2"
   inkscape:pageopacity="0.0"
   inkscape:pagecheckerboard="true"
   inkscape:deskcolor="#d1d1d1"
   showguides="true"
   inkscape:zoom="0.32933333"
   inkscape:cx="807.69231"
   inkscape:cy="850.20243"
   inkscape:window-width="1876"
   inkscape:window-height="969"
   inkscape:window-x="0"
   inkscape:window-y="0"
   inkscape:window-maximized="1"
   inkscape:current-layer="Ñëîé_1"><sodipodi:guide
     position="1197.5369,2125.0627"
     orientation="0,-1"
     id="guide39"
     inkscape:locked="false" /><sodipodi:guide
     position="1543.7544,2035.4219"
     orientation="1,0"
     id="guide40"
     inkscape:locked="false" /><sodipodi:guide
     position="1319.4387,1964.9782"
     orientation="1,0"
     id="guide41"
     inkscape:locked="false" /><sodipodi:guide
     position="1491.6876,2119.695"
     orientation="0,-1"
     id="guide42"
     inkscape:locked="false" /><sodipodi:guide
     position="1307.9356,1994.7195"
     orientation="1,0"
     id="guide43"
     inkscape:locked="false" /><sodipodi:guide
     position="1288.094,2213.6006"
     orientation="0,-1"
     id="guide44"
     inkscape:locked="false" /><sodipodi:guide
     position="1562.1136,1928.0257"
     orientation="1,0"
     id="guide45"
     inkscape:locked="false" /><sodipodi:guide
     position="1687.781,2065.0554"
     orientation="1,0"
     id="guide47"
     inkscape:locked="false" /><sodipodi:guide
     position="1572.155,2101.3357"
     orientation="1,0"
     id="guide48"
     inkscape:locked="false" /><sodipodi:guide
     position="1587.7696,1946.8546"
     orientation="1,0"
     id="guide49"
     inkscape:locked="false" /><sodipodi:guide
     position="1649.9135,1954.707"
     orientation="1,0"
     id="guide50"
     inkscape:locked="false" /><sodipodi:guide
     position="1833.1161,2154.5055"
     orientation="0,-1"
     id="guide51"
     inkscape:locked="false" /><sodipodi:guide
     position="1666.5723,1969.8393"
     orientation="1,0"
     id="guide52"
     inkscape:locked="false" /></sodipodi:namedview>
<g
   id="g29"
   inkscape:export-filename="gondola2.svg"
   inkscape:export-xdpi="96"
   inkscape:export-ydpi="96">
	<g
   id="g14">
		<path
   style="fill:#94A8BB;"
   d="M1370.841,1680.152v-188.891c0,0,198.833-83.51,210.763-111.347c11.93-27.836,0-509.011,0-509.011    h61.638c0,0,15.907,463.279,0,518.953c-15.906,55.673-200.821,127.252-200.821,127.252v170.996L1370.841,1680.152z"
   id="path1" />
		<path
   style="fill:#72839d"
   d="m 1900.5093,880.02851 c 0,0 -210.2754,-17.4319 -212.7182,-5.30065 -2.2388,11.11808 -0.7441,147.89014 -15.4181,156.54114 -14.675,8.65 -102.808,15.12 -110.423,-1.154 -7.615,-16.273 -11.173,-142.271 -18.077,-155.226 -6.905,-12.954 -217.177,19.19 -224.229,5.55 -7.051,-13.64 -11.7,-93.382 -11.7,-93.382 l 604.7442,-0.94863 z"
   id="path2"
   sodipodi:nodetypes="csccccccc" />
		<path
   style="opacity:0.3"
   d="m 1397.9639,846.049 -88.587,-49.002 c -1.357,-6.069 -2.193,-9.99 -2.193,-9.99 l 599.4075,-2.03956 -3.2635,9.12478 c 1.864,29.286 -71.2011,51.46172 -71.2011,51.46172 0,0 -157.0859,-8.56696 -166.2264,0.35962 -9.9017,9.68369 -8.2545,69.38944 -17.2375,82.21844 -8.981,12.829 -58.161,19.243 -61.368,0 -3.207,-19.245 -4.276,-75.529 -16.037,-82.133 -11.76,-6.604 -173.294,0 -173.294,0 z"
   id="path3"
   sodipodi:nodetypes="ccccccccscc" />
		<g
   id="g3">
			
				
		</g>
		
			<ellipse
   transform="rotate(15.022484)"
   style="fill:#94a8bb;stroke-width:1.00002"
   cx="2008.355"
   cy="269.53119"
   rx="70.702583"
   ry="70.70359"
   id="ellipse3" />
		
			<ellipse
   transform="rotate(10.464982)"
   style="fill:#94a8bb;stroke-width:1.00002"
   cx="1814.3995"
   cy="464.50568"
   rx="70.702553"
   ry="70.70356"
   id="ellipse4" />
		
			<ellipse
   transform="rotate(12.043769)"
   style="fill:#94a8bb;stroke-width:1"
   cx="1661.3655"
   cy="455.11011"
   rx="70.701141"
   ry="70.702148"
   id="ellipse5" />
		
			<ellipse
   transform="rotate(9.1529797)"
   style="fill:#94a8bb;stroke-width:0.999972"
   cx="1469.2335"
   cy="570.8183"
   rx="70.69902"
   ry="70.700027"
   id="ellipse6" />
		<path
   style="opacity:0.5"
   d="m 1831.8806,806.68865 c -6.9109,-10.14128 -9.4567,-22.36625 -7.1727,-34.42374 4.7152,-24.89058 28.8011,-41.30473 53.6922,-36.58825 12.056,2.2823 22.5005,9.12658 29.4142,19.26902 6.9096,10.14181 9.4567,22.36625 7.1727,34.42374 -4.7155,24.8915 -28.8011,41.30473 -53.6926,36.58917 -3.2456,-0.6143 -6.3728,-1.55952 -9.3492,-2.81132 -8.0755,-3.39733 -15.013,-9.0466 -20.0646,-16.45862 z m 43.2011,-53.50536 c -15.2356,-2.88615 -29.9808,7.16125 -32.8686,22.3983 -1.3979,7.38133 0.1617,14.86523 4.3921,21.07268 4.2318,6.20914 10.6298,10.39914 18.008,11.79677 15.2356,2.88615 29.9808,-7.16125 32.8687,-22.39829 1.3978,-7.38133 -0.1618,-14.86524 -4.3922,-21.07268 -3.0917,-4.53743 -7.3402,-7.99592 -12.2829,-10.07463 -1.8201,-0.76658 -3.7378,-1.34525 -5.7251,-1.72215 z m -220.3952,24.56345 c 4.7155,-24.8915 28.8011,-41.30473 53.6922,-36.58825 12.0538,2.28244 22.5005,9.12658 29.4155,19.26848 6.9109,10.14128 9.4567,22.36625 7.1727,34.42374 -4.7155,24.89151 -28.8011,41.30473 -53.6926,36.58918 -3.2434,-0.61445 -6.3412,-1.55712 -9.2689,-2.78837 -19.5389,-8.21844 -31.4197,-29.25765 -27.3189,-50.90478 z m 50.3742,-19.08254 v 0 c -15.2356,-2.88615 -29.9808,7.16124 -32.8687,22.39829 -1.3978,7.38133 0.1618,14.86523 4.3922,21.07268 4.23,6.20837 10.627,10.39799 18.008,11.79677 15.2356,2.88615 29.9803,-7.16255 32.8681,-22.3996 1.3979,-7.38133 -0.1618,-14.86523 -4.3921,-21.07268 -3.0918,-4.53743 -7.3384,-7.99514 -12.2829,-10.07463 -1.8201,-0.76434 -3.7386,-1.3434 -5.7246,-1.72083 z m -383.2443,64.46993 c -6.9097,-10.14181 -9.4568,-22.36625 -7.1728,-34.42374 4.7156,-24.8915 28.8011,-41.30473 53.6926,-36.58917 12.0557,2.28321 22.5027,9.12643 29.4152,19.2694 6.91,10.1409 9.4567,22.36625 7.1727,34.42375 -4.7152,24.89058 -28.802,41.30434 -53.6922,36.58825 -3.2453,-0.61523 -6.3737,-1.55992 -9.3493,-2.81133 -8.0772,-3.39587 -15.0142,-9.04606 -20.0662,-16.45716 z m 43.2015,-53.50628 c -15.2356,-2.88615 -29.9799,7.16163 -32.8678,22.39868 -1.3975,7.38041 0.1618,14.86523 4.3922,21.07268 4.2318,6.20914 10.6274,10.39706 18.0079,11.79677 15.2356,2.88615 29.9809,-7.16124 32.8678,-22.39868 1.3979,-7.38133 -0.1622,-14.86431 -4.3912,-21.07229 -3.0918,-4.53743 -7.3412,-7.99631 -12.2829,-10.07463 -1.8215,-0.76604 -3.7397,-1.34602 -5.726,-1.72253 z m 126.8199,48.02445 c -6.911,-10.14127 -9.4567,-22.36624 -7.1728,-34.42374 4.7156,-24.8915 28.8021,-41.30434 53.6927,-36.58917 12.056,2.2823 22.5027,9.12643 29.4151,19.26941 6.91,10.14089 9.4567,22.36625 7.1727,34.42374 -4.7155,24.8915 -28.802,41.30434 -53.6922,36.58825 -3.2457,-0.6143 -6.3737,-1.55991 -9.3493,-2.81132 -8.0758,-3.39641 -15.0142,-9.04607 -20.0662,-16.45717 z m 43.2015,-53.50628 c -15.2356,-2.88614 -29.9799,7.16164 -32.8678,22.39868 -1.3978,7.38133 0.1618,14.86524 4.3913,21.0723 4.2299,6.20836 10.6255,10.39628 18.0079,11.79677 15.2356,2.88615 29.98,-7.16163 32.8678,-22.39868 1.3979,-7.38133 -0.1618,-14.86523 -4.3918,-21.0736 -3.0917,-4.53743 -7.3398,-7.99684 -12.2825,-10.07555 -1.8204,-0.76343 -3.7376,-1.34302 -5.7249,-1.71992 z"
   id="path6" />
		<path
   style="fill:#4e4978"
   d="m 1867.0994,762.99073 -164.1147,3.83924 c -10.6869,0.25057 -19.1414,9.12497 -18.8721,19.81108 v 0 c 0.1713,6.8306 3.9373,13.06405 9.9051,16.39401 l 45.3454,25.3041 c 27.8036,15.51505 61.6584,15.52984 89.4745,0.0379 l 48.6812,-27.11074 c 6.5335,-3.63866 10.5577,-10.55551 10.4904,-18.03339 v 0 c -0.1022,-11.39802 -9.5132,-20.50889 -20.9098,-20.24221 z"
   id="path7" />
		<path
   style="fill:#4e4978"
   d="m 1527.0566,773.95438 -164.1151,3.84017 c -10.6865,0.24964 -19.1415,9.12497 -18.8721,19.81107 v 0 c 0.1719,6.83192 3.9373,13.06405 9.9047,16.39493 l 45.3454,25.30411 c 27.8035,15.51504 61.6584,15.52983 89.4741,0.0388 l 48.6812,-27.11073 c 6.5335,-3.63867 10.5577,-10.55552 10.4904,-18.03339 v 0 c -0.102,-11.40118 -9.512,-20.51166 -20.9086,-20.24498 z"
   id="path8" />
		<path
   style="opacity:0.5;"
   d="M1370.841,1610.379c6.292,0.283,12.584,0.565,18.877,0.848c-0.013-0.361-0.058-0.703-0.029-1.092    c1.648-22.922,3.295-45.843,4.943-68.765l1.177-16.372c0.366-5.088,0.254-10.599,1.99-15.45    c3.65-10.197,15.792-13.784,24.651-18.132c39.999-19.626,80.467-38.521,120.015-59.042c14.978-7.772,29.925-16.387,41.994-28.342    c12.887-12.764,20.084-28.551,21.918-46.6c2.217-21.817,0.795-44.164,0.854-66.059c0.061-22.822,0.281-45.643,0.661-68.46    c0.841-50.439,2.485-100.863,4.871-151.252c-9.101,0.063-18.206-0.442-27.287-1.418c-0.089-5.973-0.18-11.891-0.272-17.762    c20.923,2.584,42.156,1.923,62.901-1.79c0.125,5.943,0.247,11.95,0.367,18.004c-5.927,0.966-11.878,1.699-17.844,2.203    c-2.127,44.76-3.683,89.548-4.591,134.35c-0.921,45.465-0.161,90.947-0.989,136.403c-0.36,19.746-3.006,39.812-13.544,56.936    c-9.096,14.787-22.407,26.3-36.788,35.762c-15.677,10.317-32.79,18.243-49.6,26.491c-20.595,10.105-41.191,20.211-61.785,30.317    c-11.626,5.705-23.252,11.411-34.878,17.114c-2.99,1.468-5.984,2.926-8.969,4.403c-1.601,0.792-4.143,1.586-5.028,3.174    c-0.943,1.692-0.533,5.038-0.671,6.969c-0.236,3.273-0.471,6.549-0.706,9.823c-1.858,25.834-3.715,51.666-5.572,77.498    c-0.048,0.668-0.165,1.288-0.323,1.877c11.745,0.528,23.49,1.055,35.236,1.583v17.819c-23.86-1.073-47.72-2.145-71.58-3.217    V1610.379z"
   id="path9" />
		<path
   style="opacity:0.3;"
   d="M1557.506,1006.415c-0.631-5.418-1.237-11.474-1.825-17.93c41.724,4.47,83.976,3.389,125.436-3.104    c-0.457,6.597-0.977,12.727-1.577,18.221C1639.121,1009.514,1598.142,1010.424,1557.506,1006.415z"
   id="path10" />
		<path
   style="opacity:0.3"
   d="m 1861.1739,777.17808 c 0.975,-1.22701 2.1861,-2.13876 3.6364,-2.73411 0.7346,-0.19657 1.4681,-0.39037 2.2024,-0.58601 1.5934,-0.20318 3.132,0.002 4.6158,0.62208 l 0.4941,0.20779 c 1.1488,0.43327 2.1049,1.11091 2.8658,2.03844 0.8795,0.7593 1.5227,1.6959 1.9293,2.81072 0.4882,1.08078 0.683,2.19873 0.5855,3.3565 0.1036,1.19565 -0.1058,2.34866 -0.6229,3.46226 -0.4045,0.68581 -0.8076,1.37333 -1.2115,2.06045 -0.9763,1.22754 -2.188,2.13799 -3.6364,2.73411 -0.7346,0.19657 -1.469,0.38998 -2.2024,0.58601 -1.5933,0.20318 -3.1329,-0.003 -4.6167,-0.62246 l -0.4941,-0.2078 c -1.1466,-0.43342 -2.1045,-1.11183 -2.8659,-2.03843 -0.8784,-0.75892 -1.522,-1.6946 -1.9287,-2.80941 -0.4881,-1.08078 -0.6839,-2.19913 -0.5864,-3.35689 -0.1027,-1.19527 0.1057,-2.34866 0.6225,-3.46134 0.4057,-0.68858 0.8106,-1.37532 1.2132,-2.06191 z"
   id="path11" />
		<path
   style="opacity:0.3"
   d="m 1706.8956,775.94822 c 10.5694,4.44507 3.6789,20.87793 -6.9079,16.4255 -10.5684,-4.44469 -3.6789,-20.87793 6.9079,-16.4255 z"
   id="path12" />
		<path
   style="opacity:0.3"
   d="m 1520.506,785.84911 c 0.7593,-0.87941 1.6954,-1.52393 2.8093,-1.93093 1.0804,-0.48726 2.1992,-0.68171 3.3582,-0.58702 1.1949,-0.10173 2.3477,0.1054 3.4605,0.6244 0.6866,0.40266 1.3738,0.80664 2.0605,1.21153 1.2275,0.97623 2.138,2.18795 2.7354,3.63578 0.1953,0.73519 0.39,1.46907 0.586,2.20242 0.2032,1.59337 0,3.13123 -0.6228,4.61765 l -0.2074,0.49316 c -0.4325,1.14704 -1.112,2.10233 -2.0389,2.8668 -0.7581,0.87664 -1.6955,1.52169 -2.8094,1.92869 -1.0804,0.48727 -2.1991,0.68395 -3.3569,0.58649 -1.1948,0.10173 -2.3486,-0.10579 -3.4613,-0.62256 -0.6858,-0.4045 -1.3729,-0.80848 -2.0591,-1.21206 -1.2276,-0.97623 -2.138,-2.18795 -2.7364,-3.63617 -0.1952,-0.73519 -0.39,-1.46907 -0.5851,-2.20203 -0.2041,-1.59376 0,-3.13201 0.6221,-4.61581 l 0.2074,-0.49316 c 0.4314,-1.14965 1.1109,-2.10494 2.0379,-2.86718 z"
   id="path13" />
		<path
   style="opacity:0.3"
   d="m 1357.9,790.53006 c 0.7594,-0.87718 1.6955,-1.5217 2.8103,-1.92831 1.0804,-0.48727 2.2001,-0.68356 3.3569,-0.58649 1.1949,-0.10173 2.3487,0.10579 3.4615,0.62479 0.6875,0.40305 1.3737,0.80663 2.0595,1.21114 1.2283,0.97439 2.1389,2.18834 2.7364,3.63617 0.193,0.73534 0.3899,1.46907 0.5841,2.20164 0.2051,1.59415 0,3.13201 -0.6219,4.61804 l -0.2066,0.49132 c -0.4333,1.14888 -1.1128,2.10417 -2.0385,2.86587 -0.7593,0.87941 -1.6955,1.5217 -2.8092,1.93093 -1.0804,0.48727 -2.2002,0.68132 -3.3571,0.58426 -1.1956,0.10357 -2.349,-0.10487 -3.4613,-0.62256 -0.6862,-0.40359 -1.3737,-0.80664 -2.0595,-1.21114 -1.2276,-0.97623 -2.1389,-2.18834 -2.7364,-3.63617 -0.1943,-0.73481 -0.39,-1.46907 -0.5843,-2.20388 -0.2049,-1.59192 0,-3.13254 0.6221,-4.61581 l 0.2066,-0.49131 c 0.432,-1.14835 1.1115,-2.10364 2.0374,-2.86849 z"
   id="path14" />
	</g>
	<path
   style="fill:#4E4978;"
   d="M1498.35,1673.535c0-2.406,16.037-67.355,29.668-71.364s83.392-7.217,91.41,0   s24.055,76.977,24.055,76.977L1498.35,1673.535z"
   id="path15" />
	<path
   style="fill:#4E4978;"
   d="M1415.565,2231.553l-489.403-23.418c0,0-21.222-92.784-19.194-97.595   c2.028-4.811,80.766-317.202,90.23-312.184c9.465,5.017,848.35-0.06,848.35-0.06l84.199,420.026l-77.334,6.633L1415.565,2231.553z"
   id="path16" />
	<path
   style="opacity:0.3;fill:#FFFFFF;"
   d="M988.258,2211.106c58.709-119.485,132.277-267.714,203.35-410.546   c89.783,0.063,199.215-0.209,302.688-0.588c-69.844,144.751-147.549,304.82-207.367,425.424L988.258,2211.106z M1472.102,2230.7   l94.901-1.433c51.697-105.605,135.161-276.073,210.884-430.588c-35.862,0.194-83.772,0.441-138.306,0.694   C1578.211,1957.041,1512.901,2125.427,1472.102,2230.7z"
   id="path17" />
	<g
   id="g17">
		<rect
   x="1393.964"
   y="1798.355"
   style="fill:#72839D;"
   width="17.819"
   height="398.783"
   id="rect17" />
	</g>
	<path
   style="fill:#477C6E;"
   d="M920.221,2224.954c0,0,564.497,14.986,990.009,0c-10.691,203.115-40.627,449.013-40.627,449.013   H978.717l-20.007-23.583L920.221,2224.954z"
   id="path18" />
	<path
   style="opacity:0.3;"
   d="M990.705,2308.426c-33.609-0.866-58.264-1.497-63.06-1.42l-1.599-17.675   c5.021-0.268,18.879,0.091,65.119,1.283c175.002,4.515,633.936,16.351,915.093-0.265c-0.405,5.966-0.822,11.942-1.25,17.921   C1622.87,2324.731,1165.438,2312.935,990.705,2308.426z M1338.49,2666.902c-5.886-35.801-20.142-104.337-43.766-111.086   c-15.994-4.57-104.08-3.413-130.697-2.948c-51.634,0.898-114.66,2.858-121.697,7.08c-3.313,1.988-9.905,5.995-37.894,114.019   h18.476c12.132-46.063,24.339-88.198,29.376-98.538c26.047-3.946,217.729-8.141,237.533-2.482   c8.962,2.997,23.65,49.893,31.754,101.02h82.975L1338.49,2666.902z"
   id="path19" />
	<path
   style="fill:#72839D;"
   d="M990.783,2699.092c0,0,27.263,35.281,48.111,41.696s687.981,11.226,715.244,0   s60.94-49.714,60.94-49.714S979.557,2700.695,990.783,2699.092z"
   id="path20" />
	<path
   style="fill:#4E4978;"
   d="M889.453,2101.677c0,0-45.731,25.848-49.708,53.685c-3.977,27.836-15.907,131.229,0,149.124   c15.906,17.895,61.638,43.743,61.638,43.743L889.453,2101.677z"
   id="path21" />
	<path
   style="fill:#4E4978;"
   d="M1941.677,2101.677c0,0,45.731,25.848,49.708,53.685c3.977,27.836,15.906,131.229,0,149.124   c-15.907,17.895-61.638,43.743-61.638,43.743L1941.677,2101.677z"
   id="path22" />
	<path
   style="fill:#72839D;"
   d="M1697.114,1663.237c-21.882-13.781-183.046-14.924-281.549-14.295   c-98.501-0.629-259.667,0.514-281.547,14.295c-31.814,20.04-39.767,130.25-39.767,130.25h244.802h153.026h244.801   C1736.88,1793.486,1728.926,1683.277,1697.114,1663.237z"
   id="path23" />
	<path
   style="fill:#94A8BB;"
   d="M926.636,2179.457h973.972v75.414c0,0-800.774,14.968-973.972,0   C925.567,2196.069,926.636,2179.457,926.636,2179.457z"
   id="path24" />
	<path
   style="opacity:0.5;"
   d="M1900.608,2254.87c0,0-11.614,0.218-32.3,0.572c1.804-30.87,2.991-57.287,3.218-75.984h29.082   V2254.87z M962.924,2257.184c-1.863-31.62-3.089-58.677-3.32-77.727h-32.968c0,0-1.069,16.612,0,75.412   C936.699,2255.74,948.904,2256.508,962.924,2257.184z"
   id="path25" />
	<rect
   x="995.594"
   y="1701.739"
   style="fill:#4E4978;"
   width="831.102"
   height="19.409"
   id="rect25" />
	<path
   style="fill:#94A8BB;"
   d="M1923.782,2622.618c0,0,41.755-417.548,35.789-471.233c-5.964-53.685-89.474-495.094-89.474-495.094   c-2.518-13.329-67.603-5.964-71.58,0c-1.244,1.866,6.465,46.95,17.892,109.359c-55.725,0-206.891,0-324.331,0   c0,0-67.59,0-153.027,0c-117.44,0-268.606,0-324.33,0c11.426-62.409,19.135-107.493,17.891-109.359   c-3.976-5.964-69.062-13.329-71.579,0c0,0-83.51,441.409-89.475,495.094c-5.965,53.684,35.79,471.233,35.79,471.233   s-19.884,13.919-19.884,25.849c0,11.928,3.977,61.637,15.907,61.637c7.908,0,263.902,0,435.68,0c87.403,0,153.027,0,153.027,0   c171.778,0,427.774,0,435.68,0c11.93,0,15.907-49.708,15.907-61.637C1943.666,2636.537,1923.782,2622.618,1923.782,2622.618z    M1856.179,2638.525l-440.614,11.859l-440.614-11.859c0,0-41.754-441.407-33.8-485.151c4.771-26.241,38.161-197.729,63.26-332.05   h334.641h153.027h334.641c25.099,134.321,58.49,305.809,63.261,332.05C1897.933,2197.118,1856.179,2638.525,1856.179,2638.525z"
   id="path26" />
	<path
   style="opacity:0.5;"
   d="M871.129,2157.733c0.096-2.473,0.237-4.609,0.429-6.347c0.312-2.815,0.85-6.752,1.565-11.576   c23.335-1.988,46.614,0.535,69.683,4.675c-0.71,3.769-1.281,6.828-1.656,8.89c-0.373,2.049-0.636,4.972-0.8,8.683   C917.506,2157.815,894.201,2155.077,871.129,2157.733z M974.951,2638.525c0,0-0.641-6.78-1.747-18.71   c-10.554-3.576-21.092-7.246-31.752-10.478c-11.753-3.563-23.675-5.64-35.834-4.233c1.096,11.174,1.73,17.514,1.73,17.514   s-0.083,0.058-0.148,0.104c10.821-1.718,21.867,1.364,32.104,4.6c11.509,3.639,22.918,7.611,34.365,11.439   c1.637,0.546,3.407,0.422,5.048-0.135L974.951,2638.525z M1015.885,1765.651c-6.041,18.019-9.822,36.706-11.451,55.673h17.826   c1.692-19.024,5.914-37.721,12.398-55.673C1027.612,1765.651,1021.321,1765.651,1015.885,1765.651z"
   id="path27" />
	<path
   style="opacity:0.5;"
   d="M1890.779,2162.057c-0.163-3.711-0.426-6.634-0.799-8.683c-0.375-2.062-0.946-5.121-1.656-8.89   c23.068-4.139,46.348-6.663,69.683-4.675c0.715,4.824,1.253,8.761,1.565,11.576c0.192,1.738,0.334,3.874,0.429,6.347   C1936.929,2155.077,1913.624,2157.815,1890.779,2162.057z M1852.413,2638.627c1.64,0.557,3.411,0.681,5.048,0.135   c11.446-3.828,22.856-7.8,34.365-11.439c10.236-3.236,21.283-6.319,32.104-4.6c-0.065-0.046-0.148-0.104-0.148-0.104   s0.634-6.341,1.73-17.514c-12.159-1.407-24.081,0.67-35.834,4.233c-10.659,3.232-21.198,6.902-31.752,10.478   c-1.106,11.93-1.746,18.71-1.746,18.71L1852.413,2638.627z M1796.472,1765.651c6.484,17.952,10.706,36.649,12.398,55.673h17.826   c-1.629-18.967-5.409-37.654-11.451-55.673C1809.809,1765.651,1803.518,1765.651,1796.472,1765.651z"
   id="path28" />
	<path
   style="opacity:0.3;"
   d="M1815.775,2555.306c-0.456,13.895-0.911,27.79-1.367,41.684c-0.163,4.996-3.951,8.688-8.909,8.909   c-4.702,0.211-9.062-4.246-8.909-8.909c0.456-13.895,0.911-27.789,1.367-41.684c0.163-4.996,3.951-8.688,8.909-8.909   C1811.567,2546.186,1815.927,2550.643,1815.775,2555.306z M1761.265,2546.397c-4.958,0.222-8.746,3.913-8.909,8.909   c-0.456,13.895-0.911,27.79-1.367,41.684c-0.152,4.664,4.208,9.12,8.909,8.909c4.958-0.222,8.746-3.913,8.909-8.909   c0.455-13.895,0.911-27.789,1.367-41.684C1770.327,2550.643,1765.967,2546.186,1761.265,2546.397z M1715.665,2546.397   c-4.958,0.222-8.746,3.913-8.909,8.909c-0.456,13.895-0.911,27.79-1.367,41.684c-0.152,4.664,4.208,9.12,8.909,8.909   c4.958-0.222,8.746-3.913,8.909-8.909c0.456-13.895,0.911-27.789,1.367-41.684   C1724.726,2550.643,1720.366,2546.186,1715.665,2546.397z M1670.064,2546.397c-4.958,0.222-8.746,3.913-8.909,8.909   c-0.456,13.895-0.911,27.79-1.367,41.684c-0.152,4.664,4.208,9.12,8.909,8.909c4.959-0.222,8.746-3.913,8.909-8.909   c0.456-13.895,0.911-27.789,1.367-41.684C1679.126,2550.643,1674.766,2546.186,1670.064,2546.397z"
   id="path29" />
</g>
</svg>
