<svg xmlns="http://www.w3.org/2000/svg" xmlns:xlink="http://www.w3.org/1999/xlink" viewBox="425 350 2150 1100"><defs><path id="a" d="M0 0h3000v1800H0z"/></defs><clipPath id="b"><use xlink:href="#a" style="overflow:visible"/></clipPath><g style="clip-path:url(#b)"><linearGradient id="c" gradientUnits="userSpaceOnUse" x1="1192.688" y1="1534.627" x2="1881.554" y2="994.557"><stop offset="0" style="stop-color:#00355c"/><stop offset="1" style="stop-color:#385e53"/></linearGradient><path style="fill:url(#c)" d="M2573.707 1445.126H426.293l46.237-93.052 34.581-69.575 33.065-110.163s44.087-53.539 49.598-52.492 60.62-77.924 60.62-77.924h51.444l91.84-112.065h18.379l93.686-163.482 102.862 31.219 165.328-31.219 90.021-75.334 25.709-67.95 110.218-62.466 11.022-51.444 40.422-29.373 11.022-51.444 25.709-16.533 34.911-56.955 66.131 55.109 62.466 78.999 36.73 77.153 69.796 44.087 51.444 64.285 27.555-9.176 18.379 14.687 45.906 5.511 58.801-3.665 45.906-7.357 47.779 82.664 36.73 95.532 22.044 23.89 36.73-1.846 16.533 25.267h45.933l33.065 48.221 36.73 42.241 29.401 62.466 27.554 40.395 23.89 42.269 49.598 40.395 34.885 53.291 23.559 37.915 9.507 15.293 42.268 40.478 18.352 47.752z"/><g style="opacity:.5"><linearGradient id="d" gradientUnits="userSpaceOnUse" x1="1096.526" y1="590.671" x2="592.302" y2="1297.41"><stop offset="0" style="stop-color:#0047b7"/><stop offset="1" style="stop-color:#00005d"/></linearGradient><path style="fill:url(#d)" d="M441.449 1445.126s68.887-82.664 77.153-81.286 13.777 81.286 13.777 81.286z"/><linearGradient id="e" gradientUnits="userSpaceOnUse" x1="1157.613" y1="634.255" x2="653.389" y2="1340.995"><stop offset="0" style="stop-color:#0047b7"/><stop offset="1" style="stop-color:#00005d"/></linearGradient><path style="fill:url(#e)" d="M570.955 1445.126s17.91-78.09 20.666-95.532c2.755-17.442 22.044-76.684 22.044-76.684s-9.644 55.109 0 63.376 16.533 56.47 23.421 68.189c6.889 11.719 30.31 40.651 30.31 40.651z"/><linearGradient id="f" gradientUnits="userSpaceOnUse" x1="1231.546" y1="687.002" x2="727.321" y2="1393.742"><stop offset="0" style="stop-color:#0047b7"/><stop offset="1" style="stop-color:#00005d"/></linearGradient><path style="fill:url(#f)" d="M693.573 1445.126s0-53.676 9.644-56.459 46.843-57.892 46.843-57.892 2.755-70.264 28.932-84.042c26.177-13.777 46.843-30.227 46.843-30.227s-39.954 61.915-39.954 85.337v61.981l-38.577 81.303z"/><linearGradient id="g" gradientUnits="userSpaceOnUse" x1="1298.885" y1="735.047" x2="794.66" y2="1441.787"><stop offset="0" style="stop-color:#0047b7"/><stop offset="1" style="stop-color:#00005d"/></linearGradient><path style="fill:url(#g)" d="m811.3 1445.126 29.69-81.303v-33.007l62.908-100.615 113.91-42.71-66.131 85.888-37.123 57.437-69.431 67.468-19.288 46.842z"/><linearGradient id="h" gradientUnits="userSpaceOnUse" x1="1379.791" y1="792.767" x2="875.567" y2="1499.506"><stop offset="0" style="stop-color:#0047b7"/><stop offset="1" style="stop-color:#00005d"/></linearGradient><path style="fill:url(#h)" d="m898.855 1445.126 39.954-40.651 24.799-54.88 20.666-83.573 156.951-57.755-83.931 108.042-39.486 33.286s-26.645 50.094-50.066 67.302-45.465 28.229-45.465 28.229z"/><linearGradient id="i" gradientUnits="userSpaceOnUse" x1="1614.654" y1="960.33" x2="1110.43" y2="1667.07"><stop offset="0" style="stop-color:#0047b7"/><stop offset="1" style="stop-color:#00005d"/></linearGradient><path style="fill:url(#i)" d="m992.541 1445.126 59.242-28.229 89.442-64.822 68.529-76.877 61.548-87.706 49.598 5.511 47.761 82.195 42.71 62.466s71.642 38.632 81.286 51.004 52.354 56.459 52.354 56.459z"/><linearGradient id="j" gradientUnits="userSpaceOnUse" x1="1797.169" y1="1259.336" x2="2043.323" y2="1626.73"><stop offset="0" style="stop-color:#0047b7"/><stop offset="1" style="stop-color:#00005d"/></linearGradient><path style="fill:url(#j)" d="m1579.922 1305.507 53.952 51.444 88.25 20.666 87.41 67.509h358.21l-5.511-19.288-46.843-76.244-19.288-101.484-274.168-50.976-324.26-173.938-98.703 62.342 78.999 154.774s41.552 26.397 47.752 28.464 54.2 36.731 54.2 36.731"/><linearGradient id="k" gradientUnits="userSpaceOnUse" x1="2230.351" y1="1399.599" x2="1726.128" y2="2106.338"><stop offset="0" style="stop-color:#0047b7"/><stop offset="1" style="stop-color:#00005d"/></linearGradient><path style="fill:url(#k)" d="m2193.453 1242.132 41.341 58.792 25.717 25.718 53.273 118.484h115.729l-54.191-70.723-38.585-82.673-72.552-75.224-47.22-89.87h-23.512z"/><linearGradient id="l" gradientUnits="userSpaceOnUse" x1="1607.109" y1="1400.086" x2="1732.483" y2="1642.567"><stop offset="0" style="stop-color:#d4d1fa"/><stop offset="1" style="stop-color:#62983a"/></linearGradient><path style="opacity:.5;fill:url(#l)" d="m1316.51 1128.708 4.39 64.294 90.47 144.661 65.443 38.439 68.197 69.024h264.525l-87.411-67.508-88.25-20.666-53.952-51.445-101.952-65.194-78.999-154.774z"/></g><linearGradient id="m" gradientUnits="userSpaceOnUse" x1="1458.085" y1="417.399" x2="1478.75" y2="1789.548"><stop offset="0" style="stop-color:#e1e8f6"/><stop offset="1" style="stop-color:#f1f2f2"/></linearGradient><path style="fill:url(#m)" d="m2470.514 1267.206-54.778-19.564-47.752-31.219-49.598 9.175 18.352 66.131-88.175-37.64-36.73-37.667v-69.796l-18.379 95.504-18.82-12.455-16.065-10.636-33.065 10.25 25.708 62.439-5.511 40.423 22.044 47.752-5.511 45.934-55.109-36.73v-62.466l-29.401-40.561-95.505-53.125-67.977 14.686-44.087-25.708-27.555 20.197-62.466-16.533v36.758l-42.242-23.89-34.911-78.999-55.109-13.143-69.796-32.762-51.444-58.802 27.555 53.291 12.868 62.439 76.365 37.777 15.474 10.002 42.268 9.176-3.692 40.422 20.225 18.351-45.933-23.862 5.511-22.044-41.332-23.807-13.777-5.594-43.178-23.89h-18.352l-20.225-31.219-44.087-23.89-9.176-22.953 12.868 1.846-16.533-14.714-30.31-9.176 10.085 33.975 11.022 27.555 25.736 34.912-4.601 30.31 36.73 32.156 23.89-.937 37.887 20.446-4.822 12.62-9.176 27.555-4.601-25.708 6.42-12.868-13.777-9.175-19.288 3.665-22.953-9.176-47.752-11.931-46.843-58.802-50.535-47.752-15.596 1.846-7.357 34.884-9.176 52.354 20.198 52.354-32.156 11.022s5.511-24.799-26.618-13.777c-31.467 10.774-57.644 28.602-58.774 29.373.799-1.102 18.049-24.771 5.484-24.771l15.623-33.066 6.42-37.667s-32.129 27.555-33.975 30.31-34.911 38.576-34.911 38.576v-28.464s25.323-23.669-11.794-13.309a162 162 0 0 0-7.494 2.287c-47.752 15.623-87.238 53.263-87.238 53.263s-45.024 44.087-47.779 45.934-37.64 14.687-37.64 14.687l35.821-41.332 27.528-50.48c-.468.22-7.578 3.141-15.817 7.164v.027c-10.911 5.291-23.863 12.427-26.424 17.58-4.574 9.176-33.975 20.197-33.975 20.197l3.665-31.219-22.953 11.931v46.843l-22.044 19.288-3.665-35.821-8.266-40.395 12.841-14.714-26.618 5.511-26.645 33.066-18.37 5.291-22.962 28.712 17.442-41.332 17.469-18.379-.936-41.332-33.975 18.379-17.442-36.758-27.555-11.931-56.046 25.708-33.975 23.89s-42.241 4.602-58.774 11.022-31.246 30.31-31.246 30.31-1.819-41.332-23.863-33.975c-22.044 7.329-63.376 62.439-63.376 62.439l-37.667 22.981-47.448 9.809 34.581-69.575 33.065-110.163s44.087-53.539 49.598-52.492c5.427 1.02 58.911-75.5 60.592-77.869 0-.028.028-.028.028-.055h51.444l91.84-112.065h18.379l93.686-163.482 102.862 31.219 165.328-31.219 14.08-11.793 75.941-63.541 25.709-67.95 110.218-62.466 11.022-51.444 40.422-29.373 11.022-51.444 25.709-16.533 34.911-56.955 66.131 55.109 62.466 78.999 36.73 77.153 69.796 44.087 51.444 64.285 27.555-9.176 18.379 14.687 45.906 5.511 20.997-1.295 37.804-2.37 45.906-7.357 47.779 82.664 36.73 95.532 22.044 23.89 36.73-1.846 16.533 25.267h45.933l33.065 48.221 36.73 42.241 29.401 62.466 27.554 40.395 23.89 42.269 49.598 40.395 34.885 53.291z"/><linearGradient id="n" gradientUnits="userSpaceOnUse" x1="1963.631" y1="-577.238" x2="785.734" y2="1199.943"><stop offset="0" style="stop-color:#dccfed"/><stop offset="1" style="stop-color:#8ebcf0"/></linearGradient><path style="fill:url(#n)" d="m1150.07 1048.34-41.8 35.132-106.774 105.396-22.732-13.089-55.798 46.154-19.067 8.266-33.975 18.379-17.442-36.758-27.555-11.931-56.046 25.708-33.975 23.89s-42.241 4.602-58.774 11.022-31.246 30.31-31.246 30.31-1.819-41.332-23.863-33.975c-22.044 7.329-63.376 62.439-63.376 62.439l-37.667 22.981-47.448 9.809 34.581-69.575 33.065-110.163s44.087-53.539 49.598-52.492c5.427 1.02 58.911-75.5 60.592-77.869-1.625 2.948 19.096 26.342 19.096 26.342l-19.178 40.643 9.589 44.087v22.044l22.677-35.821 15.844-11.711 12.4-30.999 5.511-11.711-14.466-42.93 91.84-112.065h18.379l93.686-163.482 17.222 53.952 9.644 28.932 21.355 35.132 5.511 48.909 22.732-2.755 55.798-26.866 50.287 4.822 19.977 14.466-6.889 30.31 10.333 13.089-15.844 13.777 27.555 61.998z"/><linearGradient id="o" gradientUnits="userSpaceOnUse" x1="2188.036" y1="-428.504" x2="1010.136" y2="1348.681"><stop offset="0" style="stop-color:#dccfed"/><stop offset="1" style="stop-color:#8ebcf0"/></linearGradient><path style="fill:url(#o)" d="m1368.661 803.104-15.958 4.514c-7.349 3.674-98.852 60.699-98.852 60.699v-4.592s8.266-21.125 9.184-23.881c.919-2.755 28.474-67.954 28.474-67.954l-61.539 58.77v48.68l-13.777 51.435-35.821 36.74 16.966 12.055 41.817 29.277 86.338 50.379-21.125-70.586 10.563-51.435 15.155-33.066-9.185-28.466 29.393-22.969z"/><linearGradient id="p" gradientUnits="userSpaceOnUse" x1="2134.58" y1="-463.935" x2="956.682" y2="1313.247"><stop offset="0" style="stop-color:#dccfed"/><stop offset="1" style="stop-color:#8ebcf0"/></linearGradient><path style="fill:url(#p)" d="M1493.566 443.048c-.909 3.692 6.448 42.269 6.448 42.269l-13.777 16.533-27.555 68.887 31.219 76.216-26.645 66.131-49.598 64.312v56.018l-48.662-27.555-85.419-39.486-29.401-17.469-62.163 5.676 75.941-63.541 25.709-67.95 110.218-62.466 11.022-51.444 40.422-29.373 11.022-51.444 25.709-16.533 34.911-56.955-3.665 38.576s-24.8 45.934-25.736 49.598"/><linearGradient id="q" gradientUnits="userSpaceOnUse" x1="2331.413" y1="-333.477" x2="1153.513" y2="1443.707"><stop offset="0" style="stop-color:#dccfed"/><stop offset="1" style="stop-color:#8ebcf0"/></linearGradient><path style="fill:url(#q)" d="m1688.294 566.135-35.821 28.009-22.962 62.921v22.962l-.459 23.426-1.378 47.297-11.022 45.006v45.924l10.103-51.435 16.664-86.338 9.054-11.022s16.533-45.924 16.533-48.68c0-2.755 3.674-32.147 3.674-32.147l49.444-24.555z"/><linearGradient id="r" gradientUnits="userSpaceOnUse" x1="2369.69" y1="-308.108" x2="1191.791" y2="1469.077"><stop offset="0" style="stop-color:#dccfed"/><stop offset="1" style="stop-color:#8ebcf0"/></linearGradient><path style="fill:url(#r)" d="m1747.142 603.307-49.663 48.247 6.429 26.636-14.695 25.718-7.348 9.185 4.592 20.206-12.858 20.207v23.881l-24.8 56.027 26.636-39.495 9.185-27.545 13.351-30.319 1.804-28.014 15.155-20.666 7.194-22.044 11.176-35.821 24.79-19.288z"/><linearGradient id="s" gradientUnits="userSpaceOnUse" x1="2448.874" y1="-255.623" x2="1270.974" y2="1521.563"><stop offset="0" style="stop-color:#dccfed"/><stop offset="1" style="stop-color:#8ebcf0"/></linearGradient><path style="fill:url(#s)" d="m1809.535 674.507 6.429 13.786-27.555 34.903 13.778 43.178v-33.993l22.962-18.37v-10.103l17.451-15.615-5.511-22.962-12.859-24.799z"/><linearGradient id="t" gradientUnits="userSpaceOnUse" x1="2750.74" y1="-55.554" x2="1572.839" y2="1721.633"><stop offset="0" style="stop-color:#dccfed"/><stop offset="1" style="stop-color:#8ebcf0"/></linearGradient><path style="fill:url(#t)" d="m2174.633 1229.677-2.756-7.054-12.4-19.288-22.044 14.466-11.931 11.49 33.065-10.25zm-23.422 62.053-25.708-62.439 5.043-34.223 2.755-30.31 24.799-36.51 4.822-17.222-19.977-8.955v-55.109l10.333-50.287-15.844-35.132 5.511-37.199-14.466-6.889-15.155 37.199-12.4 19.977-37.887 21.355-2.067 71.642s-8.955-90.93-6.889-94.375c2.067-3.444 39.265-50.976 39.265-50.976l-4.822-42.021-42.021 3.444-21.355 16.285h-18.599l-35.132 31.247-13.777 1.378-11.022 18.599 4.133-60.868 47.532-34.195-4.133-56.487 9.644-59.931-14.466-21.355 16.753-43.867-45.906 7.357-37.804 2.37-27.417 46.319-71.642 30.31-22.044 39.486-51.444 66.131-20.198 28.023-17.442 23.421v35.821l88.175 25.708 51.417 21.134 18.379 18.351s-19.288 32.845-19.288 36.289-.689 26.177-.689 26.177l10.333 44.776 13.777 48.221h11.022l16.533-22.733 20.529-13.777 15.292 47.532 24.799 26.866 19.756 20.666 95.505 53.125 29.401 40.561v62.466l55.109 36.73 5.511-45.934-22.044-47.752zm-110.907-344.653-8.955 24.11-26.866 17.442 18.599 38.356s-21.355 31.688-22.044 33.754c-.689 2.067-8.955 35.132-8.955 35.132l-5.511-20.666 9.644-46.154-9.644-49.598 37.888-22.044 24.799-30.999z"/><linearGradient id="u" gradientUnits="userSpaceOnUse" x1="2301.301" y1="874.119" x2="2032.657" y2="1229.556"><stop offset="0" style="stop-color:#dccfed"/><stop offset="1" style="stop-color:#8ebcf0"/></linearGradient><path style="fill:url(#u)" d="m2214.587 933.989-28.243 15.155 8.955 26.176-16.533 32.377-6.889 42.476 11.711 28.477-4.133 33.755 13.777-28.244-8.266-48.22 19.288-37.888 1.378-30.31z"/><linearGradient id="v" gradientUnits="userSpaceOnUse" x1="2975.346" y1="93.317" x2="1797.447" y2="1870.501"><stop offset="0" style="stop-color:#dccfed"/><stop offset="1" style="stop-color:#8ebcf0"/></linearGradient><path style="fill:url(#v)" d="m2336.737 1291.73-88.175-37.64-36.73-37.667v-69.796l15.155-59.022-17.222-24.11v-31.688l25.488-12.399 8.955-57.865 5.511 21.355 5.511 40.312-4.133 50.618 9.644 22.044s6.888 38.576 7.577 40.643 26.866 24.799 26.866 24.799l-8.955 27.555 32.156 36.73z"/><linearGradient id="w" gradientUnits="userSpaceOnUse" x1="2328.569" y1="-335.369" x2="1150.672" y2="1441.813"><stop offset="0" style="stop-color:#dccfed"/><stop offset="1" style="stop-color:#8ebcf0"/></linearGradient><path style="fill:url(#w)" d="m1437.547 848.569 14.467 77.842-.689 31.458 20.197 56.717 39.045 44.638-24.11-67.371-19.288-30.723 10.333-61.13-.689-26.481z"/><linearGradient id="x" gradientUnits="userSpaceOnUse" x1="2438.014" y1="-262.829" x2="1260.111" y2="1514.36"><stop offset="0" style="stop-color:#dccfed"/><stop offset="1" style="stop-color:#8ebcf0"/></linearGradient><path style="fill:url(#x)" d="m1542.599 911.026 21.01 77.612-17.222 16.992 15.98 41.676 43.263 38.232 28.243 42.021-11.711-45.465 2.755-27.555s-47.532-20.666-48.221-24.455-3.444-31.343-3.444-31.343 18.599-14.466 16.877-16.533-22.069-39.824-22.069-39.824z"/><linearGradient id="y" gradientUnits="userSpaceOnUse" x1="2595.718" y1="-158.297" x2="1417.82" y2="1618.885"><stop offset="0" style="stop-color:#dccfed"/><stop offset="1" style="stop-color:#8ebcf0"/></linearGradient><path style="fill:url(#y)" d="m1706.664 1040.992 35.362 41.791-3.445 29.622 14.467 6.199-9.645 18.6 14.687 18.599v44.776l17.001 21.355v-27.554l7.578-30.311-7.578-13.777 13.318-14.239-30.319-33.981 1.846-45.925z"/><linearGradient id="z" gradientUnits="userSpaceOnUse" x1="2220.062" y1="-407.276" x2="1042.164" y2="1369.907"><stop offset="0" style="stop-color:#dccfed"/><stop offset="1" style="stop-color:#8ebcf0"/></linearGradient><path style="fill:url(#z)" d="m1264.642 1127.56-8.955 22.733-21.355 25.488-25.488 29.621-10.885 28.023a162 162 0 0 0-7.494 2.287c-47.752 15.623-87.238 53.263-87.238 53.263s-45.024 44.087-47.779 45.934-37.64 14.687-37.64 14.687l35.821-41.332 27.528-50.48c-.468.22-7.578 3.141-15.817 7.164l20.198-44.391 44.087-46.154-8.955-25.488 13.088-15.844 36.51 3.444-5.511-27.555 23.256-13.088 23.587-14.466-4.133 27.555 3.444 27.555-22.898.689s-17.056 13.088-19.812 15.155c-2.755 2.067-4.822 28.244-5.511 30.31-.689 2.067-21.355 33.754-21.355 33.754l-28.932 24.799-7.578 17.222 28.932-25.488 31.688-11.711 10.333-22.732 18.599-15.155 24.799-19.977 36.51-35.821 3.444-24.799z"/><linearGradient id="A" gradientUnits="userSpaceOnUse" x1="2312.976" y1="-345.69" x2="1135.078" y2="1431.493"><stop offset="0" style="stop-color:#dccfed"/><stop offset="1" style="stop-color:#8ebcf0"/></linearGradient><path style="fill:url(#A)" d="m1279.108 1204.024 7.808-46.384 30.769-30.08h22.503l22.503 5.281-41.791 28.014-29.392 35.821z"/><linearGradient id="B" gradientUnits="userSpaceOnUse" x1="846.679" y1="1435.88" x2="1123.78" y2="147.359"><stop offset="0" style="stop-color:#00355c"/><stop offset="1" style="stop-color:#385e53"/></linearGradient><path style="fill:url(#B)" d="M939.728 1030.085h-11.941l-5.511 18.255 17.452-9.127z"/><linearGradient id="C" gradientUnits="userSpaceOnUse" x1="644.237" y1="2490.028" x2="1667.648" y2="-2268.842"><stop offset="0" style="stop-color:#00355c"/><stop offset="1" style="stop-color:#385e53"/></linearGradient><path style="fill:url(#C)" d="m966.134 1007.008-18.37 23.077-22.043 29.139 37.887-24.661 18.369-17.451 10.564-24.8h-26.407z"/><linearGradient id="D" gradientUnits="userSpaceOnUse" x1="723.519" y1="1827.788" x2="1302.323" y2="-863.658"><stop offset="0" style="stop-color:#00355c"/><stop offset="1" style="stop-color:#385e53"/></linearGradient><path style="fill:url(#D)" d="m922.276 985.883-7.723-6.429-33.609 33.984 2.005 5.189z"/><linearGradient id="E" gradientUnits="userSpaceOnUse" x1="778.768" y1="1369.41" x2="1066.39" y2="31.963"><stop offset="0" style="stop-color:#00355c"/><stop offset="1" style="stop-color:#385e53"/></linearGradient><path style="fill:url(#E)" d="m875.433 948.225-16.532 7.348v11.94l16.532-6.383z"/><linearGradient id="F" gradientUnits="userSpaceOnUse" x1="475.135" y1="2787.505" x2="1686.435" y2="-2845.051"><stop offset="0" style="stop-color:#00355c"/><stop offset="1" style="stop-color:#385e53"/></linearGradient><path style="fill:url(#F)" d="m850.634 1059.224 24.799-10.884 11.941-18.255-6.43-16.647-13.777 5.511-14.696-10.104-47.302 84.501z"/><linearGradient id="G" gradientUnits="userSpaceOnUse" x1="829.75" y1="1411.5" x2="1061.852" y2="332.222"><stop offset="0" style="stop-color:#00355c"/><stop offset="1" style="stop-color:#385e53"/></linearGradient><path style="fill:url(#G)" d="m901.725 1088.754 8.841-16.533-17.681 9.185z"/><linearGradient id="H" gradientUnits="userSpaceOnUse" x1="660.936" y1="2054.485" x2="1318.876" y2="-1004.944"><stop offset="0" style="stop-color:#00355c"/><stop offset="1" style="stop-color:#385e53"/></linearGradient><path style="fill:url(#H)" d="M850.634 1116.308h-12.858l-2.755 11.252 15.613 8.955v-12.158l42.251-31.011h-12.86z"/><linearGradient id="I" gradientUnits="userSpaceOnUse" x1="801.203" y1="1493.052" x2="1063.989" y2="271.097"><stop offset="0" style="stop-color:#00355c"/><stop offset="1" style="stop-color:#385e53"/></linearGradient><path style="fill:url(#I)" d="m882.322 1127.56 10.563-18.6-21.126 13.778z"/><linearGradient id="J" gradientUnits="userSpaceOnUse" x1="152.036" y1="4083.821" x2="2209.061" y2="-5481.366"><stop offset="0" style="stop-color:#00355c"/><stop offset="1" style="stop-color:#385e53"/></linearGradient><path style="fill:url(#J)" d="m833.876 1080.487-35.974 37.773-17.45 8.151-7.349-8.726-17.072 23.421-36.739 67.16h8.266l19.972-33.58-7.615 12.804 44.589-21.699-23.261-7.41c8.549-4.207 23.801-13.601 23.801-13.601l37.657-35.821 27.934-35.821z"/><linearGradient id="K" gradientUnits="userSpaceOnUse" x1="422.53" y1="2498.873" x2="1343.128" y2="-1781.915"><stop offset="0" style="stop-color:#00355c"/><stop offset="1" style="stop-color:#385e53"/></linearGradient><path style="fill:url(#K)" d="m724.802 1170.499 8.267-18.37-11.941-3.674-42.251 59.812 4.963 5.285 42.799-30.194z"/><linearGradient id="L" gradientUnits="userSpaceOnUse" x1="533.042" y1="1728.046" x2="882.324" y2="103.882"><stop offset="0" style="stop-color:#00355c"/><stop offset="1" style="stop-color:#385e53"/></linearGradient><path style="fill:url(#L)" d="M611.828 1208.267v16.423l21.125 13.777 20.207 6.429 21.125-20.206-31.229-1.837z"/><linearGradient id="M" gradientUnits="userSpaceOnUse" x1="526.74" y1="1541.979" x2="749.042" y2="508.274"><stop offset="0" style="stop-color:#00355c"/><stop offset="1" style="stop-color:#385e53"/></linearGradient><path style="fill:url(#M)" d="m591.621 1226.582 10.103 7.579v-17.655h-13.777z"/><linearGradient id="N" gradientUnits="userSpaceOnUse" x1="406.352" y1="2062.152" x2="977.493" y2="-593.659"><stop offset="0" style="stop-color:#00355c"/><stop offset="1" style="stop-color:#385e53"/></linearGradient><path style="fill:url(#N)" d="m570.955 1237.548-5.052 26.636h11.022l17.91-19.288-14.466-22.962z"/><linearGradient id="O" gradientUnits="userSpaceOnUse" x1="203.821" y1="2950.695" x2="1442.078" y2="-2807.211"><stop offset="0" style="stop-color:#00355c"/><stop offset="1" style="stop-color:#385e53"/></linearGradient><path style="fill:url(#O)" d="m570.955 1178.581 23.88-16.234 30.771-13.892-2.111-10.269-31.773 20.067-7.448-9.798-14.927 26.232zl-5.052-6.188-22.044 38.06 3.216 9.644 28.013-36.452z"/><linearGradient id="P" gradientUnits="userSpaceOnUse" x1="470.851" y1="1623.286" x2="796.835" y2="107.459"><stop offset="0" style="stop-color:#00355c"/><stop offset="1" style="stop-color:#385e53"/></linearGradient><path style="fill:url(#P)" d="m575.088 1144.781-11.48 23.422 11.48-5.856z"/><linearGradient id="Q" gradientUnits="userSpaceOnUse" x1="716.15" y1="1397.417" x2="995.94" y2="96.393"><stop offset="0" style="stop-color:#00355c"/><stop offset="1" style="stop-color:#385e53"/></linearGradient><path style="fill:url(#Q)" d="m801.725 985.883-8.955 12.859 12.399 10.103 6.131-11.481z"/><linearGradient id="R" gradientUnits="userSpaceOnUse" x1="517.301" y1="2403.946" x2="1489.166" y2="-2115.236"><stop offset="0" style="stop-color:#00355c"/><stop offset="1" style="stop-color:#385e53"/></linearGradient><path style="fill:url(#R)" d="m832.035 992.312 10.792-3.674-5.051-9.184-11.941 3.444-20.666 25.947-16.991 37.13z"/><linearGradient id="S" gradientUnits="userSpaceOnUse" x1="863.863" y1="2098.854" x2="1661.167" y2="-1608.618"><stop offset="0" style="stop-color:#00355c"/><stop offset="1" style="stop-color:#385e53"/></linearGradient><path style="fill:url(#S)" d="M1125.491 948.225h12.4v-15.614h-16.533l-25.488 15.614-18.599 34.673 35.821-25.029z"/><linearGradient id="T" gradientUnits="userSpaceOnUse" x1="821.074" y1="2244.878" x2="1687.86" y2="-1785.684"><stop offset="0" style="stop-color:#00355c"/><stop offset="1" style="stop-color:#385e53"/></linearGradient><path style="fill:url(#T)" d="m1117.57 976.698-32.721 15.614-26.866 40.414 39.265-35.362 13.089-5.052z"/><linearGradient id="U" gradientUnits="userSpaceOnUse" x1="1023.898" y1="1456.296" x2="1342.39" y2="-24.695"><stop offset="0" style="stop-color:#00355c"/><stop offset="1" style="stop-color:#385e53"/></linearGradient><path style="fill:url(#U)" d="m1108.27 997.364 14.466 16.073 11.711-4.592 3.444-16.533-20.322-5.281c.345 2.067-9.299 10.333-9.299 10.333"/><linearGradient id="V" gradientUnits="userSpaceOnUse" x1="1080.925" y1="1240.684" x2="1264.186" y2="388.52"><stop offset="0" style="stop-color:#00355c"/><stop offset="1" style="stop-color:#385e53"/></linearGradient><path style="fill:url(#V)" d="m1137.891 985.883 8.955-4.592v-8.037l-19.288 3.444z"/><linearGradient id="W" gradientUnits="userSpaceOnUse" x1="1162.053" y1="2105.231" x2="1879.803" y2="-1232.314"><stop offset="0" style="stop-color:#00355c"/><stop offset="1" style="stop-color:#385e53"/></linearGradient><path style="fill:url(#W)" d="m1388.868 1071.302-39.495-28.715 10.563 37.9 18.828 5.97 37.659 27.555-17.452-24.34z"/><linearGradient id="X" gradientUnits="userSpaceOnUse" x1="1304.699" y1="1617.693" x2="1706.296" y2="-249.737"><stop offset="0" style="stop-color:#00355c"/><stop offset="1" style="stop-color:#385e53"/></linearGradient><path style="fill:url(#X)" d="m1395.105 1020.023 40.375 39.201 25.947 6.958-20.666-33.456c-.917 1.378-45.656-12.703-45.656-12.703"/><linearGradient id="Y" gradientUnits="userSpaceOnUse" x1="1203.18" y1="2065.36" x2="1896.761" y2="-1159.799"><stop offset="0" style="stop-color:#00355c"/><stop offset="1" style="stop-color:#385e53"/></linearGradient><path style="fill:url(#Y)" d="M1435.481 1071.302c-.689-.459-12.63-5.121-12.63-5.121l-.941 4.962-8.243-11.919-31.229-21.102s13.777 32.721 14.696 32.721c.494 0 7.906 6.386 14.648 12.285h-4.749l10.307 16.188 16.993 5.052 11.481-12.4 12.399-18.829-7.347-6.958c0 .001-14.696 5.581-15.385 5.121"/><linearGradient id="Z" gradientUnits="userSpaceOnUse" x1="1069.238" y1="2116.255" x2="2006.791" y2="-2243.378"><stop offset="0" style="stop-color:#00355c"/><stop offset="1" style="stop-color:#385e53"/></linearGradient><path style="fill:url(#Z)" d="m1364.986 781.749 10.105-40.406-32.148 54.873 2.985 13.318 10.563-13.318z"/><linearGradient id="aa" gradientUnits="userSpaceOnUse" x1="915.06" y1="2825.102" x2="2390.665" y2="-4036.477"><stop offset="0" style="stop-color:#00355c"/><stop offset="1" style="stop-color:#385e53"/></linearGradient><path style="fill:url(#aa)" d="m1370.055 718.617-39.971 45.451 25.405-18.14 16.114-12.554 7.85 6.355 13.318-4.822 4.883-37.402 5.45-34.929-34.443 20.666-31.656 49.191 35.1-24.392 17.825-3.322-16.536 15.447z"/><linearGradient id="ab" gradientUnits="userSpaceOnUse" x1="1203.452" y1="1669.052" x2="1873.946" y2="-1448.752"><stop offset="0" style="stop-color:#00355c"/><stop offset="1" style="stop-color:#385e53"/></linearGradient><path style="fill:url(#ab)" d="m1398.971 721.129 4.031 13.778 12.502-16.546 7.692-32.364-16.163 28.244z"/><linearGradient id="ac" gradientUnits="userSpaceOnUse" x1="1082.921" y1="2187.461" x2="2174.47" y2="-2888.253"><stop offset="0" style="stop-color:#00355c"/><stop offset="1" style="stop-color:#385e53"/></linearGradient><path style="fill:url(#ac)" d="M1410.912 648.258v14.318h11.939l3.675-17.222 7.951-28.342 1.004.788 10.333-14.493v-15.129l-22.618 19.977-2.227 6.995-13.936 2.65-6.226 20.666-12.169 24.11 10.333-7.578z"/><linearGradient id="ad" gradientUnits="userSpaceOnUse" x1="850.921" y1="3477.606" x2="2832.823" y2="-5738.255"><stop offset="0" style="stop-color:#00355c"/><stop offset="1" style="stop-color:#385e53"/></linearGradient><path style="fill:url(#ad)" d="m1464.413 628.133-19.802 46.374h-3.619l-11.252 39.504 16.074-22.737 8.266-16.767h-5.822l9.955-15.376 13.309-13.777 10.67-17.221-8.135-61.998-15.844 22.043-7.577 14.811 3.789 14.811z"/><linearGradient id="ae" gradientUnits="userSpaceOnUse" x1="1095.588" y1="2352.289" x2="2253.729" y2="-3033.08"><stop offset="0" style="stop-color:#00355c"/><stop offset="1" style="stop-color:#385e53"/></linearGradient><path style="fill:url(#ae)" d="m1425.148 735.492 30.967-27.451 13.545-10.851 7.842-42.421-23.422 36.505z"/><linearGradient id="af" gradientUnits="userSpaceOnUse" x1="1154.821" y1="2695.668" x2="2393.63" y2="-3064.809"><stop offset="0" style="stop-color:#00355c"/><stop offset="1" style="stop-color:#385e53"/></linearGradient><path style="fill:url(#af)" d="m1598.053 940.188-14.995-1.377-27.715-15.155 34.788 2.755 3.789-8.955-42.71-18.028 1.632 9.568-10.243 2.03-24.454-11.598-7.578-9.072-.034.055-7.543-8.752 43.398 21.101 4.822-3.332-33.065-17.033-15.155-.736-2.99-3.469h-14.921l-37.328-23.137 10.462 28.949 26.002 3.239-4.877 3.115 18.141 20.67 2.715-18.72-13.048-4.7 22.097 4.918-6.253 10.236 7.577 5.741h7.578l24.454 15.155h10.483l12.553 15.155 16.308 7.624 24.376 33.019 17.911 11.94-26.177-37.428z"/><linearGradient id="ag" gradientUnits="userSpaceOnUse" x1="1542.744" y1="1239.955" x2="1755.685" y2="249.774"><stop offset="0" style="stop-color:#00355c"/><stop offset="1" style="stop-color:#385e53"/></linearGradient><path style="fill:url(#ag)" d="m1620.786 946.434-14.467-20.023h-8.266l-4.133 6.2z"/><linearGradient id="ah" gradientUnits="userSpaceOnUse" x1="1397.511" y1="2371.345" x2="2329.615" y2="-1962.947"><stop offset="0" style="stop-color:#00355c"/><stop offset="1" style="stop-color:#385e53"/></linearGradient><path style="fill:url(#ah)" d="m1733.301 1085.275-50.059-35.102 14.238-2.521.779-5.064-15.934-9.861-5.052-6.889 6.889-5.97-11.711-11.481-19.486-14.237-11.972-2.755 21.584 16.992-5.511 2.755-23.191-14.237 6.2 18.829 8.725 11.94s4.593-3.444 4.133-4.478 2.755 2.641 2.755 2.641l-10.562 16.533 19.747 10.563 47.311 21.929z"/><linearGradient id="ai" gradientUnits="userSpaceOnUse" x1="1590.062" y1="1666.117" x2="1983.008" y2="-161.084"><stop offset="0" style="stop-color:#00355c"/><stop offset="1" style="stop-color:#385e53"/></linearGradient><path style="fill:url(#ai)" d="m1672.45 1085.275 7.003 2.331s16.188 12.17 18.026 11.711c1.836-.459 30.283 18.693 30.283 18.693l20.642 9.551-61.488-44.432z"/><linearGradient id="aj" gradientUnits="userSpaceOnUse" x1="1677.605" y1="1391.709" x2="1918.317" y2="272.396"><stop offset="0" style="stop-color:#00355c"/><stop offset="1" style="stop-color:#385e53"/></linearGradient><path style="fill:url(#aj)" d="m1761.903 1052.091 1.708-3.521-41.527-15.163-1.183-1.6-10.811-2.779-.001-.001-5.262-1.353 1.836 13.318 14.819 4.216 1.666 2.365 36.788 8.574 38.577 10.792-15.155-7.749z"/><linearGradient id="ak" gradientUnits="userSpaceOnUse" x1="1455.009" y1="3580.596" x2="3159.061" y2="-4343.264"><stop offset="0" style="stop-color:#00355c"/><stop offset="1" style="stop-color:#385e53"/></linearGradient><path style="fill:url(#ak)" d="m1979.784 1136.053 27.225-23.648 10.907-29.277-26.521 21.24-5.483 12.236-11.509-4.199-9.158 23.648h-7.835l-5.969 16.076 10.563 15.155 4.362 13.318 5.741 28.014 5.052-31.229v-15.154l-12.86-6.43 16.993-19.75z"/><linearGradient id="al" gradientUnits="userSpaceOnUse" x1="1845.284" y1="1942.373" x2="2449.613" y2="-867.761"><stop offset="0" style="stop-color:#00355c"/><stop offset="1" style="stop-color:#385e53"/></linearGradient><path style="fill:url(#al)" d="m2017.916 1098.857 13.892-2.985 13.786-39.06-17.287 19.542-4.305 11.251-6.086 6.143z"/><linearGradient id="am" gradientUnits="userSpaceOnUse" x1="1775.811" y1="2358.854" x2="2608.091" y2="-1511.255"><stop offset="0" style="stop-color:#00355c"/><stop offset="1" style="stop-color:#385e53"/></linearGradient><path style="fill:url(#am)" d="m2033.763 1159.483 15.497-10.109 4.592-9.645h-15.155l-3.516 6.587-22.661 11.783v16.074l-5.511 21.584 28.473-22.503 20.666-17.91-22.502 5.05z"/><linearGradient id="an" gradientUnits="userSpaceOnUse" x1="1910.722" y1="2129.647" x2="2597.137" y2="-1062.188"><stop offset="0" style="stop-color:#00355c"/><stop offset="1" style="stop-color:#385e53"/></linearGradient><path style="fill:url(#an)" d="m2133.301 1122.738-14.696 22.732-7.806 14.924 3.903 12.86 10.801-3.444-4.143-16.762z"/><linearGradient id="ao" gradientUnits="userSpaceOnUse" x1="1599.837" y1="3437.459" x2="3197.235" y2="-3990.456"><stop offset="0" style="stop-color:#00355c"/><stop offset="1" style="stop-color:#385e53"/></linearGradient><path style="fill:url(#ao)" d="m2113.094 1145.47 12.409-49.598-22.512 32.836-5.874 19.271-13.873-2.509-11.482 14.924v18.642l-7.806 18.099-4.133-1.378v12.859l19.288-1.837v-9.108l25.716-19.824v-26.472z"/></g></svg>