<?xml version="1.0" encoding="UTF-8" standalone="no"?>
<svg
   version="1.1"
   id="Layer_1"
   x="0px"
   y="0px"
   width="100%"
   viewBox="0 0 1400 788"
   enable-background="new 0 0 1400 788"
   xml:space="preserve"
   sodipodi:docname="epic-pass.svg"
   inkscape:version="1.4.3 (0d15f75042, 2025-12-25)"
   xmlns:inkscape="http://www.inkscape.org/namespaces/inkscape"
   xmlns:sodipodi="http://sodipodi.sourceforge.net/DTD/sodipodi-0.dtd"
   xmlns="http://www.w3.org/2000/svg"
   xmlns:svg="http://www.w3.org/2000/svg"><defs
   id="defs6" /><sodipodi:namedview
   id="namedview6"
   pagecolor="#ffffff"
   bordercolor="#000000"
   borderopacity="0.25"
   inkscape:showpageshadow="2"
   inkscape:pageopacity="0.0"
   inkscape:pagecheckerboard="true"
   inkscape:deskcolor="#d1d1d1"
   showgrid="false"
   inkscape:zoom="0.71571429"
   inkscape:cx="700"
   inkscape:cy="226.34731"
   inkscape:window-width="1876"
   inkscape:window-height="969"
   inkscape:window-x="0"
   inkscape:window-y="0"
   inkscape:window-maximized="1"
   inkscape:current-layer="Layer_1" />

<path
   fill="#ff8b00"
   opacity="1"
   stroke="none"
   d="m 419.61147,674.12026 c 0.57337,-74.56646 0.78031,-148.24804 1.97894,-221.91251 0.29773,-18.30248 12.26479,-31.61414 24.55981,-43.48073 11.20081,-10.81065 23.21681,-20.72545 34.90813,-30.99304 16.39008,-14.39429 32.81219,-28.74984 49.43479,-43.30963 2.96238,12.03917 5.19709,23.54529 8.64892,34.64905 7.33531,23.59537 33.208,41.85214 57.87054,42.82667 20.76629,0.82065 39.92809,-1.81212 57.4703,-14.34547 39.06565,-27.91121 43.67648,-83.24954 13.94558,-118.13689 -29.45421,-34.56284 -84.19644,-35.72853 -116.29892,-2.40754 -25.55805,26.52821 -53.90029,50.19993 -80.936,75.22074 -13.18535,12.20264 -26.09992,24.71725 -39.32956,36.86784 -30.21021,27.74622 -60.37148,55.55368 -90.88919,82.93742 -15.60946,14.00637 -31.28127,28.11779 -48.1291,40.42958 -18.30212,13.37443 -39.31862,21.16929 -61.73916,24.11304 -11.25577,1.47781 -22.60592,3.66996 -33.86375,3.3933 C 152.00913,538.86046 110.35011,525.06297 74.950101,495.97544 41.689363,468.64565 19.736818,433.07863 8.8473696,389.92599 -6.5120243,329.05949 4.4940521,273.23313 39.367249,223.31705 64.764811,186.96404 99.73313,162.39306 142.67501,150.70378 c 59.23712,-16.125 113.85156,-5.82728 164.34769,28.96972 20.03575,13.80665 36.51007,31.60651 49.87921,52.36526 2.33248,3.62168 4.77191,7.17018 7.29293,10.94879 -19.70124,17.30959 -39.46405,34.49942 -59.03186,51.92214 -14.89484,13.26195 -29.3807,27.01423 -44.33795,40.19919 -21.58463,19.02717 -42.91208,38.43644 -65.42563,56.23504 -8.80878,6.96398 -20.53069,10.00984 -33.40336,15.99139 10.44772,2.23143 19.41028,5.44072 28.48809,5.83616 25.02697,1.09043 46.82954,-7.1917 65.80495,-24.77909 20.90421,-19.37516 43.01587,-37.35958 64.44351,-56.14148 17.35318,-15.21052 34.39098,-30.80309 51.7178,-46.04603 17.72315,-15.59153 35.68833,-30.89049 53.43378,-46.45554 13.45042,-11.79777 26.84134,-23.67373 40.04846,-35.75932 26.97694,-24.68591 54.56266,-48.35125 91.02506,-56.70433 22.43005,-5.13845 44.78549,-8.52042 68.1917,-5.75889 20.14397,2.3766 39.5718,6.08879 58.15114,14.25349 25.141,11.04818 46.1639,27.59385 63.81951,49.26142 17.35176,21.29479 29.75955,45.1624 37.8238,71.42486 9.32883,30.38056 13.45613,61.07461 7.64012,93.20494 -7.29261,40.28921 -25.88559,73.68076 -54.23491,101.35669 -27.1192,26.47492 -58.92512,44.15233 -96.13116,51.56489 -24.86303,4.9535 -49.12247,3.46098 -73.44237,-2.15689 -16.37011,-3.78139 -24.38595,2.42951 -24.48107,19.65731 -0.10675,19.34077 -0.15357,38.68383 0.0229,58.02368 0.10749,11.78011 -3.67885,22.14017 -11.85492,29.91057 -20.6254,19.60184 -41.78527,38.60634 -62.76187,57.81442 -14.9266,13.66803 -29.89578,27.2868 -44.8729,40.89598 -1.16956,1.0627 -2.5522,1.87593 -5.21612,3.80439 0,-19.54703 0,-37.53908 -10e-5,-56.42228 M 116.5595,325.34185 c 0.71975,12.46943 1.4395,24.93886 2.31028,40.02476 8.71355,-7.48938 15.44674,-12.78673 21.63732,-18.68927 18.69201,-17.82231 37.1189,-35.93996 55.76372,-53.81528 7.30064,-6.99935 15.07688,-13.47606 22.28673,-20.56891 2.84333,-2.79722 6.90938,-6.98468 6.45893,-9.88511 -0.47243,-3.0421 -5.35975,-6.81995 -8.89487,-7.64452 -17.71469,-4.13172 -35.29384,-3.0287 -52.5342,3.34644 -28.999,10.7233 -43.9954,36.57827 -47.02791,67.23189 z"
   id="path2"
   style="stroke-width:1.7584" />
<path
   fill="#ff8b00"
   opacity="1"
   stroke="none"
   d="m 1334.3241,458.50241 c -24.9278,27.00965 -53.8751,46.59373 -88.039,56.7616 -15.3145,4.55784 -31.4223,6.6355 -47.3078,8.72362 -30.7834,4.04638 -60.1072,-2.652 -87.81,-16.11607 -24.15,-11.73744 -44.46,-28.85011 -61.4688,-50.32145 -13.5478,-17.10263 -24.0511,-35.76635 -30.9971,-56.56079 -8.3205,-24.90856 -12.4338,-50.63189 -10.184,-76.87953 3.1105,-36.28919 14.5209,-69.85179 36.2247,-98.88363 26.9791,-36.08796 61.7009,-60.8004 105.0917,-71.17338 38.8572,-9.28919 76.8902,-6.58613 114.1392,9.12332 31.4058,13.24512 56.207,34.39801 75.8987,62.54261 10.0438,14.35484 10.4033,14.40563 -2.5507,26.06869 -21.6499,19.49253 -43.5352,38.70743 -64.292,57.12582 -11.2708,-11.69238 -21.114,-24.93156 -33.6732,-34.299 -25.7017,-19.16972 -63.401,-13.24501 -86.1402,8.14116 -15.9749,15.02465 -24.229,33.51329 -23.6205,55.86336 1.0222,37.53613 38.7377,71.53553 75.7954,62.85392 19.8447,-4.64901 34.7574,-15.91837 49.3879,-28.80553 24.198,-21.31462 48.3614,-42.67109 72.4949,-64.06331 13.1525,-11.65838 26.2077,-23.43299 39.3249,-35.13354 1.2083,-1.07757 2.5484,-1.99761 4.8677,-3.79872 0.2278,3.40355 0.502,5.59956 0.5033,7.79568 0.025,45.23073 0.1338,90.46239 -0.1901,135.69066 -0.027,3.82297 -2.1487,8.43923 -4.7412,11.29149 -10.4523,11.49997 -21.4712,22.45213 -32.7138,34.05302 z"
   id="path3"
   style="stroke-width:1.7584" />
<path
   fill="#ff8b00"
   opacity="1"
   stroke="none"
   d="m 837.03187,514.68983 c -0.0983,-102.55991 -0.66458,-204.27204 0.21867,-305.97071 0.27469,-31.61616 11.22079,-59.66104 54.00557,-64.46993 23.45746,-2.63652 47.42245,-0.47135 71.61763,-0.47135 0,123.38852 0,247.8253 0,373.20167 -4.16038,0 -8.10462,6e-5 -12.04887,6e-5 -34.8966,0 -69.79342,0.0351 -104.68971,-0.0625 -3.00519,-0.008 -6.00816,-0.89546 -9.10329,-2.22729 z"
   id="path4"
   style="stroke-width:1.7584" />
<path
   fill="#ff8700"
   opacity="1"
   stroke="none"
   d="m 1383.0535,159.21243 c 2.9619,-4.1564 5.2179,-8.89946 7.9633,-13.31917 1.1964,-1.92563 3.3973,-3.18771 6.5839,-6.04334 0,14.47712 0,25.97262 0,37.72886 -10.3627,-0.0264 -4.6599,-8.79102 -7.0443,-12.66723 -2.1423,2.44602 -4.3257,4.93912 -6.509,7.43222 -2.8433,-3.4194 -5.6865,-6.83881 -8.0555,-9.68774 -0.5441,4.19591 -1.2598,9.71782 -1.9757,15.23979 -1.0354,-0.0498 -2.0705,-0.0996 -3.1056,-0.14936 -5.4803,-9.42951 -0.5259,-20.24872 -2.8435,-30.09099 -2.3064,0.38383 -4.9533,0.8244 -8.1952,1.36398 0,7.08445 0.3088,14.7457 -0.1941,22.34985 -0.145,2.19176 -2.627,4.21907 -4.0375,6.32179 -1.4761,-2.07455 -4.0683,-4.06338 -4.2251,-6.23913 -0.5325,-7.37637 -0.2031,-14.81883 -0.2031,-20.81444 -3.5749,-2.25339 -6.4938,-4.09336 -9.4128,-5.93332 0.4251,-0.89633 0.85,-1.79272 1.2749,-2.68906 9.4732,0 18.9673,-0.35119 28.4043,0.25105 2.3115,0.14745 5.0647,3.00439 6.4966,5.34356 2.0607,3.36633 3.0978,7.39898 5.0784,11.60268 z"
   id="path5"
   style="stroke-width:1.7584" />

</svg>
