<?xml version="1.0" encoding="UTF-8" standalone="no"?>
<svg
   version="1.1"
   id="Layer_1"
   x="0px"
   y="0px"
   width="100%"
   viewBox="0 0 1473 679"
   enable-background="new 0 0 1473 679"
   xml:space="preserve"
   sodipodi:docname="ikon-pass.svg"
   inkscape:version="1.4.3 (0d15f75042, 2025-12-25)"
   xmlns:inkscape="http://www.inkscape.org/namespaces/inkscape"
   xmlns:sodipodi="http://sodipodi.sourceforge.net/DTD/sodipodi-0.dtd"
   xmlns="http://www.w3.org/2000/svg"
   xmlns:svg="http://www.w3.org/2000/svg"><defs
   id="defs16" /><sodipodi:namedview
   id="namedview16"
   pagecolor="#ffffff"
   bordercolor="#000000"
   borderopacity="0.25"
   inkscape:showpageshadow="2"
   inkscape:pageopacity="0.0"
   inkscape:pagecheckerboard="true"
   inkscape:deskcolor="#d1d1d1"
   inkscape:zoom="0.61445803"
   inkscape:cx="1039.9408"
   inkscape:cy="574.49001"
   inkscape:window-width="1876"
   inkscape:window-height="969"
   inkscape:window-x="0"
   inkscape:window-y="0"
   inkscape:window-maximized="1"
   inkscape:current-layer="Layer_1" />

<path
   fill="#082241"
   opacity="1.000000"
   stroke="none"
   d=" M992.000000,267.925537   C990.422607,288.521454 986.299133,308.068390 979.493347,327.103302   C971.029968,350.774139 958.619690,372.067566 942.941101,391.691101   C920.157715,420.207184 891.778992,441.208008 858.645813,456.003418   C840.279114,464.204956 821.094727,470.026520 801.051636,471.839417   C784.789429,473.310242 768.320007,474.601013 752.083923,473.623444   C737.492126,472.744904 722.903259,469.423065 708.651245,465.835541   C685.482605,460.003448 664.300171,449.474731 644.442810,436.158142   C629.765991,426.315735 616.368530,414.981781 604.564697,401.938324   C581.660889,376.629181 565.039795,347.520599 555.559143,314.732544   C551.846680,301.893341 549.575623,288.472504 548.237366,275.156860   C546.832764,261.181091 546.405029,246.960327 547.215393,232.942871   C548.462280,211.372879 553.698792,190.443771 561.390747,170.244324   C569.613159,148.652054 581.125916,128.766647 595.771667,110.990173   C608.225586,95.874062 622.380310,82.382927 638.383118,70.761993   C658.729370,55.986927 680.705444,44.689339 704.786316,37.845402   C717.180786,34.322834 729.996094,32.015369 742.767273,30.167807   C753.152344,28.665426 763.776367,27.869778 774.256836,28.152752   C803.021240,28.929394 830.862183,34.555325 857.402588,46.029083   C876.358093,54.223820 894.165222,64.472549 909.976562,77.678162   C930.845093,95.107498 948.798828,115.195358 962.527649,138.919388   C974.256287,159.186905 982.707581,180.718414 987.595276,203.505661   C990.046570,214.934067 990.673889,226.762177 991.962097,238.427643   C992.521118,243.490219 992.912842,248.597763 992.927002,253.686142   C992.939697,258.272766 992.333313,262.861084 992.000000,267.925537  M779.119080,197.638672   C799.105347,220.806839 817.684814,245.196365 838.444153,267.631378   C846.822693,259.827209 854.409302,252.760696 862.156555,245.544571   C872.912415,258.119568 883.348572,270.320770 894.348572,283.181213   C906.278442,223.485397 879.592407,172.512802 834.691101,145.528564   C792.317078,120.063156 733.834778,118.451965 686.236633,158.565292   C652.195312,187.253571 632.806885,235.320557 645.772156,285.956329   C660.884766,270.371765 675.851135,254.938049 691.785217,238.506378   C698.569031,245.685410 704.805237,252.284943 711.036682,259.668915   C713.220337,262.932007 715.392456,262.663147 718.416443,259.007751   C723.571411,252.776489 728.774902,246.583313 734.060547,240.462692   C744.962646,227.838547 755.752563,215.108688 766.997009,202.795212   C769.906738,199.608810 771.879333,192.648926 779.119080,197.638672  z"
   id="path2" />
<path
   fill="#082241"
   opacity="1.000000"
   stroke="none"
   d=" M1254.260376,354.678955   C1242.976440,339.370911 1231.950562,324.331390 1220.834473,309.358917   C1207.961670,292.020355 1194.943726,274.789307 1182.110962,257.421234   C1170.456055,241.647430 1158.982300,225.739868 1147.369141,209.934982   C1146.463501,208.702408 1145.089355,207.814133 1143.185425,206.088364   C1143.185425,291.605560 1143.185425,375.990875 1143.185425,460.687805   C1106.732544,460.687805 1070.664429,460.687805 1034.297729,460.687805   C1034.297729,321.370697 1034.297729,181.971313 1034.297729,42.000000   C1036.012085,42.000000 1037.779541,42.000000 1039.546997,42.000000   C1072.379517,42.000000 1105.213379,42.132080 1138.043213,41.838928   C1142.322388,41.800713 1144.673706,43.579609 1146.789062,46.421658   C1162.964966,68.155296 1179.116821,89.907333 1195.189819,111.717285   C1212.602661,135.345215 1229.823120,159.115463 1247.309326,182.688766   C1266.171997,208.117691 1285.282349,233.362625 1304.210571,258.743042   C1313.471191,271.160553 1322.563965,283.703247 1332.742188,295.887665   C1332.742188,211.419449 1332.742188,126.951233 1332.742188,42.242317   C1369.408447,42.242317 1405.476196,42.242317 1441.772217,42.242317   C1441.772217,181.769318 1441.772217,321.168640 1441.772217,461.000000   C1440.160889,461.000000 1438.708130,461.000000 1437.255371,461.000000   C1404.089478,461.000000 1370.923584,460.974091 1337.757812,461.041687   C1334.582153,461.048157 1332.685547,460.272186 1330.563965,457.379059   C1312.802490,433.158569 1294.654541,409.221802 1276.680786,385.156433   C1269.207764,375.150665 1261.875122,365.040070 1254.260376,354.678955  z"
   id="path3" />
<path
   fill="#082241"
   opacity="1.000000"
   stroke="none"
   d=" M291.999451,42.000000   C298.475372,42.000000 304.451355,42.000000 310.982086,42.000000   C310.982086,98.753174 310.982086,155.260040 310.982086,211.766907   C311.360962,211.937454 311.739838,212.108017 312.118713,212.278564   C315.356110,208.366638 318.736389,204.563324 321.806122,200.523956   C335.068787,183.072159 348.236755,165.548416 361.446503,148.056351   C373.678253,131.859344 385.863373,115.626678 398.171906,99.488190   C410.499115,83.325256 423.435944,67.599197 435.132904,50.996391   C440.358795,43.578712 446.075867,41.712364 454.651031,41.804241   C495.476135,42.241646 536.308533,42.000000 578.621155,42.000000   C523.222656,109.020111 468.443787,175.290695 413.531342,241.722824   C473.604431,314.748871 533.394531,387.430847 593.914429,461.000000   C591.041565,461.000000 589.294006,461.000000 587.546509,461.000000   C544.716431,461.000000 501.884918,460.831329 459.057953,461.196625   C453.183258,461.246735 449.701111,459.241974 446.442932,454.999176   C430.595093,434.362122 414.593658,413.843048 398.741608,393.209229   C385.974152,376.590485 373.390930,359.830200 360.626770,343.208923   C355.371704,336.365875 349.856842,329.722412 343.959808,322.363770   C341.038788,325.691406 338.233704,328.805786 335.518005,331.996246   C328.092102,340.720459 320.558746,349.360901 313.415222,358.311676   C311.864960,360.254120 311.113403,363.352142 311.099854,365.923737   C310.943329,395.587311 311.000000,425.252045 311.000000,454.916443   C311.000000,456.733429 311.000000,458.550446 311.000000,460.683167   C274.410034,460.683167 238.009827,460.683167 201.304382,460.683167   C201.304382,321.389252 201.304382,181.994980 201.304382,42.000000   C231.314102,42.000000 261.406830,42.000000 291.999451,42.000000  z"
   id="path4" />
<path
   fill="#082241"
   opacity="1.000000"
   stroke="none"
   d=" M142.000000,372.000000   C142.000000,401.805359 142.000000,431.110718 142.000000,460.707703   C105.696091,460.707703 69.631676,460.707703 33.283237,460.707703   C33.283237,321.355652 33.283237,181.970200 33.283237,42.292282   C69.303940,42.292282 105.368340,42.292282 142.000000,42.292282   C142.000000,152.005569 142.000000,261.752777 142.000000,372.000000  z"
   id="path5" />
<path
   fill="#082241"
   opacity="1.000000"
   stroke="none"
   d=" M1203.000000,578.000000   C1282.797363,578.000000 1362.094727,578.000000 1441.696045,578.000000   C1441.696045,587.278442 1441.696045,596.347046 1441.696045,605.709473   C1306.039917,605.709473 1170.324097,605.709473 1034.303955,605.709473   C1034.303955,596.721375 1034.303955,587.652710 1034.303955,578.000000   C1090.328369,578.000000 1146.414185,578.000000 1203.000000,578.000000  z"
   id="path6" />
<path
   fill="#082241"
   opacity="1.000000"
   stroke="none"
   d=" M67.000000,578.000000   C183.791183,578.000000 300.082367,578.000000 416.686707,578.000000   C416.686707,587.259277 416.686707,596.328186 416.686707,605.700073   C289.058685,605.700073 161.342712,605.700073 33.313267,605.700073   C33.313267,596.740662 33.313267,587.671814 33.313267,578.000000   C44.310123,578.000000 55.405064,578.000000 67.000000,578.000000  z"
   id="path7" />
<path
   fill="#082241"
   opacity="1.000000"
   stroke="none"
   d=" M603.026245,652.000000   C599.210754,652.000000 595.890808,652.000000 591.621399,652.000000   C592.496033,648.765076 593.095154,645.888916 594.046509,643.134399   C602.444702,618.818909 610.864319,594.510559 619.365295,570.230835   C623.456116,558.546997 627.929810,546.992981 631.784058,535.233948   C632.683350,532.490112 633.796387,531.964783 636.215271,531.973328   C651.205322,532.026428 666.195679,532.000061 681.571228,532.000061   C695.722961,571.725525 709.883240,611.475037 724.195068,651.649780   C708.476501,651.649780 693.110596,651.649780 677.470703,651.649780   C677.109253,650.778137 676.509033,649.662659 676.174500,648.472534   C672.950623,637.003601 672.963379,636.995300 661.023621,637.002014   C654.692688,637.005554 648.361816,637.027710 642.030884,637.051331   C641.881042,637.051880 641.731567,637.170044 641.325806,637.341736   C640.568359,641.267822 640.067078,645.445496 638.819092,649.386597   C638.437500,650.591614 636.019958,651.854248 634.509399,651.886047   C624.184021,652.103455 613.851868,651.999939 603.026245,652.000000  M655.040649,585.772888   C653.362793,593.062805 651.684875,600.352661 649.954407,607.871094   C655.453674,607.871094 660.430786,607.871094 665.749695,607.871094   C662.552246,598.926147 662.822021,588.997681 656.847229,579.551453   C656.129639,582.372253 655.790161,583.706421 655.040649,585.772888  M658.729248,579.524475   C657.957458,579.411865 657.185730,579.299316 656.413940,579.186768   C656.392578,579.400818 656.371155,579.614807 656.349792,579.828857   C656.959229,579.871277 657.568665,579.913696 658.729248,579.524475  z"
   id="path8" />
<path
   fill="#082241"
   opacity="1.000000"
   stroke="none"
   d=" M562.745728,604.668335   C554.203369,612.893921 544.239685,616.319214 532.813477,616.033203   C525.693604,615.854980 518.565674,616.000000 511.023651,616.000000   C511.023651,628.106323 511.023651,639.845215 511.023651,651.787354   C496.534302,651.787354 482.469238,651.787354 468.212677,651.787354   C468.212677,611.852356 468.212677,572.126404 468.212677,532.000000   C487.871918,532.000000 507.325806,531.761841 526.767822,532.137878   C533.011169,532.258545 539.497437,533.182617 545.395630,535.161133   C560.378845,540.187256 570.308289,553.029907 572.147400,569.376892   C573.393494,580.453003 572.026794,590.590332 565.992920,599.994751   C565.035400,601.487122 563.973022,602.912109 562.745728,604.668335  M513.580566,584.999329   C517.368591,584.339355 521.662048,584.551147 524.783630,582.741516   C527.250366,581.311584 529.433533,577.482544 529.648926,574.564453   C529.916016,570.945312 527.583374,567.241272 523.484924,566.273804   C519.595459,565.355652 515.524597,565.205933 511.028046,564.656494   C511.028046,571.416260 510.992767,577.517090 511.097748,583.615479   C511.105804,584.083130 512.104126,584.533691 513.580566,584.999329  z"
   id="path9" />
<path
   fill="#082241"
   opacity="1.000000"
   stroke="none"
   d=" M781.875000,616.365173   C788.324341,617.769836 794.492737,619.003845 800.708618,619.912537   C802.179382,620.127502 804.216125,619.706543 805.271484,618.767639   C806.846313,617.366699 808.857239,615.133301 808.681946,613.464355   C808.510925,611.836365 806.052917,609.638794 804.206848,609.138733   C796.763794,607.122498 789.017395,606.162598 781.658142,603.912720   C756.127136,596.107422 755.174072,567.005554 766.493103,551.092346   C775.257263,538.770874 787.598145,532.864685 802.596802,530.793457   C819.827698,528.413940 835.216492,532.507324 850.026123,540.360413   C846.015076,550.993042 842.171387,561.181885 838.237549,571.609802   C832.956665,569.123962 828.036682,566.194885 822.722778,564.504517   C818.621460,563.199890 813.985046,562.915833 809.668091,563.245544   C807.679504,563.397400 805.885986,566.103088 804.004028,567.650757   C805.497437,569.367065 806.696716,572.075989 808.537048,572.621338   C815.167847,574.585876 822.152588,575.374451 828.754517,577.413818   C850.237183,584.049866 857.364380,600.409851 852.552246,620.689575   C848.266663,638.750427 834.750488,648.347351 817.717712,651.708862   C796.902161,655.816895 775.892273,652.549011 755.558716,642.094604   C760.002319,630.711670 764.470032,619.267090 768.989197,607.690613   C773.580322,610.740479 777.595825,613.408020 781.875000,616.365173  z"
   id="path10" />
<path
   fill="#082241"
   opacity="1.000000"
   stroke="none"
   d=" M903.744019,545.755005   C912.403442,536.565369 922.979309,532.631775 934.955994,530.863403   C950.553833,528.560425 964.934875,531.640808 978.852356,538.367188   C981.385071,539.591248 982.539429,540.609070 981.163879,543.928284   C977.355530,553.118042 974.157593,562.560669 970.686707,571.989441   C959.527771,566.568848 948.946838,557.419739 935.576599,566.997864   C938.557434,574.810120 945.289246,573.611511 950.577759,574.929504   C960.644592,577.438477 970.657288,579.463135 978.345337,587.599060   C982.897156,592.415955 985.235413,597.962952 985.874329,604.020630   C988.307556,627.086609 977.368713,642.864990 955.958557,649.971802   C939.754822,655.350403 923.375061,653.886108 907.216431,649.540649   C900.736572,647.798096 894.515198,645.094788 887.818420,642.700867   C892.385681,630.987061 896.857300,619.518555 901.220398,608.328247   C907.494690,611.716919 913.466248,615.547913 919.912781,618.242920   C925.648682,620.640869 932.008545,621.482239 937.914978,618.413818   C939.369080,617.658325 940.858337,615.250671 940.758972,613.703613   C940.657654,612.124878 938.876038,609.726501 937.387634,609.324280   C930.861755,607.560913 924.169495,606.419067 917.548584,605.000305   C900.443848,601.335022 889.251587,585.451050 892.759705,567.735291   C894.441284,559.243530 897.184509,551.911804 903.744019,545.755005  z"
   id="path11" />
<path
   fill="#FFFFFF"
   opacity="1.000000"
   stroke="none"
   d=" M711.041504,258.884460   C704.805237,252.284943 698.569031,245.685410 691.785217,238.506378   C675.851135,254.938049 660.884766,270.371765 645.772156,285.956329   C632.806885,235.320557 652.195312,187.253571 686.236633,158.565292   C733.834778,118.451965 792.317078,120.063156 834.691101,145.528564   C879.592407,172.512802 906.278442,223.485397 894.348572,283.181213   C883.348572,270.320770 872.912415,258.119568 862.156555,245.544571   C854.409302,252.760696 846.822693,259.827209 838.444153,267.631378   C817.684814,245.196365 799.105347,220.806839 778.964966,196.974930   C776.779053,193.843185 774.747192,191.375198 772.723938,188.917694   C762.714172,200.250580 753.002625,211.149200 743.406189,222.148239   C737.926636,228.428604 732.733582,234.959641 727.229614,241.217880   C721.955933,247.214325 716.447021,253.003952 711.041504,258.884460  z"
   id="path12" />
<path
   fill="#082241"
   opacity="1.000000"
   stroke="none"
   d=" M711.039062,259.276672   C716.447021,253.003952 721.955933,247.214325 727.229614,241.217880   C732.733582,234.959641 737.926636,228.428604 743.406189,222.148239   C753.002625,211.149200 762.714172,200.250580 772.723938,188.917694   C774.747192,191.375198 776.779053,193.843185 778.822144,196.655975   C771.879333,192.648926 769.906738,199.608810 766.997009,202.795212   C755.752563,215.108688 744.962646,227.838547 734.060547,240.462692   C728.774902,246.583313 723.571411,252.776489 718.416443,259.007751   C715.392456,262.663147 713.220337,262.932007 711.039062,259.276672  z"
   id="path13" />
<path
   fill="#FFFFFF"
   opacity="1.000000"
   stroke="none"
   d=" M655.245728,585.406738   C655.790161,583.706421 656.129639,582.372253 656.847229,579.551453   C662.822021,588.997681 662.552246,598.926147 665.749695,607.871094   C660.430786,607.871094 655.453674,607.871094 649.954407,607.871094   C651.684875,600.352661 653.362793,593.062805 655.245728,585.406738  z"
   id="path14" />
<path
   fill="#FFFFFF"
   opacity="1.000000"
   stroke="none"
   d=" M658.453674,579.740295   C657.568665,579.913696 656.959229,579.871277 656.349792,579.828857   C656.371155,579.614807 656.392578,579.400818 656.413940,579.186768   C657.185730,579.299316 657.957458,579.411865 658.453674,579.740295  z"
   id="path15" />
<path
   fill="#FFFFFF"
   opacity="1.000000"
   stroke="none"
   d=" M513.111389,584.995728   C512.104126,584.533691 511.105804,584.083130 511.097748,583.615479   C510.992767,577.517090 511.028046,571.416260 511.028046,564.656494   C515.524597,565.205933 519.595459,565.355652 523.484924,566.273804   C527.583374,567.241272 529.916016,570.945312 529.648926,574.564453   C529.433533,577.482544 527.250366,581.311584 524.783630,582.741516   C521.662048,584.551147 517.368591,584.339355 513.111389,584.995728  z"
   id="path16" />
</svg>
